<svg xmlns="http://www.w3.org/2000/svg" fill="none" viewBox="-1.625 -1.625 51.25 51.25"><rect width="46" height="46" x="1" y="1" fill="#4a3dff" rx="9"/><g transform="matrix(.78 0 0 .78 3.78 5.28)"><path fill="none" stroke="#fff" stroke-linejoin="round" stroke-width="2.9" d="M12 11a4 4 0 0 1 4-4h16a4 4 0 0 1 4 4v22l-2 4-2-4-2 4-2-4-2 4-2-4-2 4-2-4-2 4-2-4-2 4-2-4Z"/><path stroke="#fff" stroke-linecap="round" stroke-width="2.9" d="M17 16h14m-14 5.5h9"/><circle cx="33" cy="33" r="9" fill="#fff"/><path fill="none" stroke="#4a3dff" stroke-linecap="round" stroke-linejoin="round" stroke-width="2.9" d="m29.2 33.2 2.6 2.7 4.6-5.6"/></g></svg>