<svg xmlns="http://www.w3.org/2000/svg" fill="none" viewBox="-7.54 2.075 123.079 123.079"><rect width="108" height="100" y="19" fill="#88b7f1" rx="16"/><path fill="#88b7f1" d="M4.733 8.312c9.118 6.191 15.337 9.039 26 11.5l-22 1.5c-2.297-3.701-2.912-6.088-4-13M102 8.311c-9.118 6.192-15.337 9.04-26 11.5l22 1.5c2.297-3.7 2.913-6.087 4-13"/><path fill="#88b7f1" d="M80 19.5c0 3.314-14.521 7.5-27.5 7.5s-26-3.186-26-6.5c-2-1.5 13-6.5 26-6.5 13-.5 26 4 27.5 5.5"/><mask id="a" width="108" height="100" x="0" y="19" maskUnits="userSpaceOnUse" style="mask-type:alpha"><rect width="108" height="100" y="19" fill="#8ebffb" rx="16"/></mask><g fill="#11518e" mask="url(#a)"><path d="M17.5 65.5c12.242 9.5 11.288 28.388 1.5 41S-.258 128.501-12.5 119s-21.01-35.551-11.223-48.163C-13.935 58.224 5.257 55.999 17.5 65.5m72.295.46c-12.243 9.501-11.288 28.388-1.5 41 9.788 12.613 19.257 22.001 31.5 12.5 12.242-9.5 21.01-35.55 11.222-48.163s-28.98-14.837-41.222-5.337m-18.942 43.136L79 93.5c.002.009.502 3.003 1.5 5 1 2 1.5 2.5 1.5 2.5l-11 18.525-17.11-28.949L39.5 114.5l-3.342 5.025-2.812-5.025-8.178-14.608s.5-.5 1.5-2.5S28 93.5 28 93.5l8.879 15.098L54 80z"/></g><g filter="url(#b)"><circle cx="30.5" cy="45.5" r="20.5" fill="#f1bf4f"/></g><circle cx="32.5" cy="44.5" r="8.5" fill="#11518e"/><g filter="url(#c)"><circle cx="76.5" cy="44.5" r="20.5" fill="#f1bf4f"/></g><circle cx="74.5" cy="44.5" r="8.5" fill="#11518e"/><g filter="url(#d)"><path fill="#d9d9d9" fill-opacity=".01" d="M59.835 62.073c7.105 5.605 11.994 7.58 22.5 7C78.175 77.926 78 80.5 78 80.5l-24.5-1-24.5 1s.16-2.147-4-11c10.506.58 15.394-1.395 22.5-7l6 9.5z"/></g><defs><filter id="b" width="41" height="45" x="10" y="25" color-interpolation-filters="sRGB" filterUnits="userSpaceOnUse"><feFlood flood-opacity="0" result="BackgroundImageFix"/><feBlend in="SourceGraphic" in2="BackgroundImageFix" mode="normal" result="shape"/><feColorMatrix in="SourceAlpha" result="hardAlpha" type="matrix" values="0 0 0 0 0 0 0 0 0 0 0 0 0 0 0 0 0 0 127 0"/><feOffset dy="6"/><feGaussianBlur stdDeviation="2"/><feComposite in2="hardAlpha" k2="-1" k3="1" operator="arithmetic"/><feColorMatrix type="matrix" values="0 0 0 0 0 0 0 0 0 0 0 0 0 0 0 0 0 0 0.25 0"/><feBlend in2="shape" mode="normal" result="effect1_innerShadow_2_184"/></filter><filter id="c" width="41" height="45" x="56" y="24" color-interpolation-filters="sRGB" filterUnits="userSpaceOnUse"><feFlood flood-opacity="0" result="BackgroundImageFix"/><feBlend in="SourceGraphic" in2="BackgroundImageFix" mode="normal" result="shape"/><feColorMatrix in="SourceAlpha" result="hardAlpha" type="matrix" values="0 0 0 0 0 0 0 0 0 0 0 0 0 0 0 0 0 0 127 0"/><feOffset dy="4"/><feGaussianBlur stdDeviation="3"/><feComposite in2="hardAlpha" k2="-1" k3="1" operator="arithmetic"/><feColorMatrix type="matrix" values="0 0 0 0 0 0 0 0 0 0 0 0 0 0 0 0 0 0 0.25 0"/><feBlend in2="shape" mode="normal" result="effect1_innerShadow_2_184"/></filter><filter id="d" width="57.335" height="22.427" x="25" y="62.073" color-interpolation-filters="sRGB" filterUnits="userSpaceOnUse"><feFlood flood-opacity="0" result="BackgroundImageFix"/><feBlend in="SourceGraphic" in2="BackgroundImageFix" mode="normal" result="shape"/><feColorMatrix in="SourceAlpha" result="hardAlpha" type="matrix" values="0 0 0 0 0 0 0 0 0 0 0 0 0 0 0 0 0 0 127 0"/><feOffset dy="4"/><feGaussianBlur stdDeviation="2"/><feComposite in2="hardAlpha" k2="-1" k3="1" operator="arithmetic"/><feColorMatrix type="matrix" values="0 0 0 0 0 0 0 0 0 0 0 0 0 0 0 0 0 0 0.25 0"/><feBlend in2="shape" mode="normal" result="effect1_innerShadow_2_184"/></filter></defs></svg>