<svg xmlns="http://www.w3.org/2000/svg" viewBox="16.333 20.333 993.333 993.333"><path fill="#c7e0e4" d="M718.994 220.853c.685 4.427 1.001 8.836 4.609 11.96-.941 1.647-1.156 2.753-1.281 4.636-5.04-4.621-6.245-9.812-7.857-16.201.786 1.094 1.446 1.995 2.549 2.805 1.347-.671 1.434-1.844 1.98-3.2"/><path fill="#26cbee" d="M703.194 198.698c1.164 4.688 2.852 17.234.615 21.506-.562 1.072-1.065 1.144-2.123 1.443-.669-5.882-1.058-11.657-2.189-17.488 2.168-1.628 2.968-2.844 3.697-5.461"/><path fill="#c7e0e4" d="M640.82 200.988c6.713-.341 13.275-.507 19.961.333 6.167.774 16.514 4.937 21.933 3.918l-.495-.602a22 22 0 0 1-1.346-1.872c4.943 3.041 10.887 7.292 13.477 12.661-10.443-7.165-23.943-12.263-36.62-13.207-5.463-.407-10.781.222-16.168-1.052z"/><path fill="#fcfcf7" d="M714.465 221.248c-1.925-11.051-.035-21.657 6.555-30.926 5.038-7.086 13.037-12.871 21.757-14.129 9.565-1.38 19.046.727 26.746 6.636 7.826 6.006 12.489 15.029 13.717 24.737.928 7.334-.189 14.072-4.77 20.101-5.368 7.065-13.618 10.935-22.302 11.897-6.81.754-13.157-1.046-19.867-1.178-3.358-.066-7.331 1.037-10.551.585-1.265-.178-2.387-.821-3.428-1.522.125-1.883.34-2.989 1.281-4.636 10.484-4.617 15.498-2.351 25.907-1.106 6.683.8 13.498-1.023 18.713-5.336 4.942-4.088 7.235-8.545 7.665-14.987.46-6.905-1.223-13.557-5.951-18.786-5-5.529-12.578-8.488-19.937-8.781q-.704-.022-1.409-.008t-1.408.061q-.703.049-1.402.132-.7.084-1.395.202-.694.118-1.382.271t-1.368.34q-.679.187-1.349.407-.669.221-1.326.474-.658.254-1.302.54t-1.273.603q-.629.318-1.241.667t-1.207.728q-.594.378-1.169.786-.574.408-1.128.844-.553.437-1.084.9-.532.463-1.039.952c-8.086 7.777-10.404 18.337-10.524 29.137-.546 1.356-.633 2.529-1.98 3.2-1.103-.81-1.763-1.711-2.549-2.805m-73.645-20.26c-3.45-.057-7.619-1.162-10.628-2.755-4.817-2.551-8.23-7.008-9.687-12.237-2.21-7.928.072-17.463 4.03-24.521q.379-.681.791-1.343t.858-1.301.922-1.256.984-1.208 1.044-1.157 1.101-1.103 1.155-1.047q.59-.508 1.206-.987.615-.478 1.254-.925.639-.446 1.299-.86.661-.414 1.341-.795.681-.38 1.379-.725.699-.346 1.414-.656.715-.309 1.445-.583t1.473-.51 1.496-.435c10.166-2.782 20.623-1.452 29.689 3.888 17.918 10.554 24.821 29.129 29.808 48.226-.729 2.617-1.529 3.833-3.697 5.461-.92-3.47-2.095-6.792-3.346-10.155-1.435-3.831-3.15-7.682-5.402-11.107-7.154-14.11-15.859-23.576-31.153-28.595-5.837-1.916-12.583-1.446-18.066 1.34-5.573 2.832-10.092 7.861-11.876 13.899q-.144.474-.263.955-.119.48-.213.967-.094.486-.162.976-.068.491-.111.984-.043.494-.06.989-.016.495-.007.99t.044.989.095.986.147.979.198.97.248.959q.136.476.297.944.162.468.347.927.185.46.395.909.209.449.441.886t.487.862c2.527 4.197 6.555 6.848 11.297 7.926 3.873.88 7.986.744 11.928 1.09 8.885.779 18.741 3.819 26.111 8.936.425.658.853 1.26 1.346 1.872l.495.602c-5.419 1.019-15.766-3.144-21.933-3.918-6.686-.84-13.248-.674-19.961-.333"/><defs><linearGradient id="a" x1="739.235" x2="752.317" y1="186.005" y2="231.698" gradientUnits="userSpaceOnUse"><stop offset="0" stop-color="#15173e"/><stop offset="1" stop-color="#27315c"/></linearGradient></defs><path fill="url(#a)" d="M718.994 220.853c.12-10.8 2.438-21.36 10.524-29.137q.507-.489 1.039-.952t1.084-.9q.554-.436 1.128-.844.575-.408 1.169-.786t1.207-.728q.612-.349 1.241-.667.629-.317 1.273-.603t1.301-.54q.658-.253 1.327-.474.67-.22 1.349-.407.68-.187 1.367-.34.688-.153 1.383-.271t1.395-.202q.699-.083 1.402-.132.703-.048 1.408-.061.705-.014 1.409.008c7.359.293 14.937 3.252 19.937 8.781 4.728 5.229 6.411 11.881 5.951 18.786-.43 6.442-2.723 10.899-7.665 14.987-5.215 4.313-12.03 6.136-18.713 5.336-10.409-1.245-15.423-3.511-25.907 1.106-3.608-3.124-3.924-7.533-4.609-11.96"/><path fill="#92fcfc" d="M742.287 194.993c5.165-1.837 10.234-1.727 15.232.682 3.561 1.716 6.674 4.593 7.882 8.443.856 2.733.788 5.962-.724 8.459-1.614 2.665-4.609 4.129-7.571 4.733-8.924 1.82-19.421-.543-28.645-.203.578-5.077 1.009-10.011 4.043-14.323 2.416-3.655 5.895-5.954 9.783-7.791"/><path fill="#c7e0e4" d="M732.504 202.784c2.416-3.655 5.895-5.954 9.783-7.791 1.772.205 3.46.345 5.246.311 2.173-.042 4.296.106 6.104 1.425.089.688.359 1.158-.115 1.744-2.256 2.786-15.064 4.646-18.705 4.668-.792.005-1.547-.183-2.313-.357"/><path fill="#24173e" d="M680.873 202.765c-7.37-5.117-17.226-8.157-26.111-8.936-3.942-.346-8.055-.21-11.928-1.09-4.742-1.078-8.77-3.729-11.297-7.926q-.255-.425-.487-.862t-.441-.886-.395-.909-.347-.927-.297-.944-.248-.959-.198-.97-.147-.979-.095-.986q-.035-.494-.044-.989t.007-.99.06-.989q.043-.493.111-.984.068-.49.162-.976.094-.487.213-.967.119-.481.263-.955c1.784-6.038 6.303-11.067 11.876-13.899 5.483-2.786 12.229-3.256 18.066-1.34 15.294 5.019 23.999 14.485 31.153 28.595 2.252 3.425 3.967 7.276 5.402 11.107 1.251 3.363 2.426 6.685 3.346 10.155 1.131 5.831 1.52 11.606 2.189 17.488-2.655-1.875-5.128-3.822-7.336-6.221-2.59-5.369-8.534-9.62-13.477-12.661"/><path fill="#0f5191" d="M670.189 169.934c1.505 1.374 2.976 2.73 4.343 4.244 3.783 1.451 7.862 3.323 11.143 5.7 1.412 2.357 2.72 5.173 4.655 7.115.638-.264 1.079-.295 1.471-.881l-.037.142q-.225-.297-.455-.592c-.799-1.015-2.586-1.964-2.6-3.186l1.502.669.538-.248c2.252 3.425 3.967 7.276 5.402 11.107l-.166 3.213-.383.333c-1.825-2.563-2.052-5.923-3.654-8.626-.669-1.127-1.262-.995-2.487-1.268.281.852.439 1.661.606 2.54-.935 2.188-2.16 5.937-4.195 7.131-2.13-.766-3.8-4.324-5.002-6.216-4.291-2.075-8.752-3.658-13.224-5.291 1.228-.333 2.961-1.146 3.761-2.158 2.442-3.089-.537-9.687-1.133-13.204z"/><path fill="#5ee1f6" d="M670.189 169.934c1.505 1.374 2.976 2.73 4.343 4.244 3.031 3.538 9.326 10.36 8.688 15.385-.121.955-.103.667-.912 1.386l-1.438.162c-4.291-2.075-8.752-3.658-13.224-5.291 1.228-.333 2.961-1.146 3.761-2.158 2.442-3.089-.537-9.687-1.133-13.204z"/><path fill="#92fcfc" d="M643.702 182.287c-.163-.13-.331-.256-.49-.392-2.321-1.998-4.165-4.499-4.369-7.656-.157-2.438.958-4.679 2.586-6.429 3.176-3.411 8.172-5.132 12.761-5.116 6.242.022 11.633 2.969 15.999 7.24l.085.524c.596 3.517 3.575 10.115 1.133 13.204-.8 1.012-2.533 1.825-3.761 2.158-7.824-2.32-15.903-2.462-23.944-3.533"/><path fill="#fcfcf7" d="M403.832 144.741c8.859-.518 20.622.828 29.536 1.903 4.408.531 9.069 1.564 13.497 1.481 2.941-.055 6.303-1.235 9.185-1.933 8.217-1.988 16.386-2.354 24.692-.57 5.16 1.108 10.03 2.959 14.846 5.092 10.638 4.711 16.351 9.712 22.622 19.511 10.612 5.046 22.345 8.709 33.349 13.974 18.814 9.001 41.552 24.837 56.987 38.839 6.694 6.073 12.65 13.003 19.151 19.292 2.258-3.48 4.483-7.333 7.365-10.34 4.002-4.177 9.063-5.719 14.74-5.709 13.177.022 18.055 12.979 26.187 20.892l.493.472c12.488 2.236 25.243 2.799 37.801 4.488 16.396 2.204 35.432 8.286 49.825 16.353 8.486 4.757 16.428 10.683 24.266 16.427 6.712-5.493 13.627-10.751 21.214-14.996 16.567-9.27 37.68-14.566 56.634-14.782 9.999-.114 21.06.74 30.565-2.883 13.29-5.067 20.224-20.574 33.813-24.128 4.865-1.272 11.229-.906 15.552 1.833 5.954 3.772 8.641 11.152 10.053 17.748 2.152 10.054 2.781 20.861 2.716 31.105-.035 5.442.082 11.013-.441 16.433-2.331 24.143-10.782 49.111-24.13 69.321-15.622 23.654-40.717 44.473-67.602 53.951-8.459 2.983-17.086 4.452-25.826 6.264 1.05 15.948.613 32.141.62 48.13.006 13.542.36 27.228-.153 40.752-.185 4.883-1.122 9.713-1.286 14.59-.212 6.33.258 12.711-.399 19.023-1.498 14.395-5.321 33.094-8.959 47.2-14.938 57.932-42.066 114.221-81.55 159.47-8.682 9.95-18.164 18.918-27.716 28.016-27.676 26.358-51.834 44.427-84.794 63.896-31.086 17.935-66.326 29.97-101.614 36.221-9.416 1.668-18.974 3.487-28.481 4.519-5.75.623-11.604.329-17.378.677-19.198 1.156-39.364 1.615-58.553-.114-41.201-3.713-84.524-15.813-121.348-34.75-15.961-8.207-31.264-18.612-45.948-28.894-56.033-39.233-101.797-96.773-124.582-161.533-7.15-20.321-11.92-42.117-15.342-63.378-1.905-11.832-2.289-23.404-2.431-35.351-.094-7.951.322-16.592-1.133-24.424-.039-.213-.085-.424-.128-.637-3.235-2.143-6.343-4.278-9.135-6.989-19.026-18.47-23.046-49.098-23.952-74.249-.268-7.447-4.432-9.231-9.333-13.885-6.237-5.922-9.154-11.813-9.317-20.533-.3-16.106-1.998-33.468 10.124-45.956 14.637-15.079 42.26-15.613 61.848-15.784-3.359-2.525-6.739-5.047-9.759-7.979-8.829-8.573-13.196-18.266-13.374-30.572-.206-14.284 4.941-24.771 14.857-34.868 22.979-23.4 68.718-32.04 100.508-32.487 2.253-5.563 3.247-11.537 5.114-17.23 5.364-16.35 14.488-34.776 26.12-47.408 6.589-7.156 13.867-13.615 22.122-18.801 22.54-14.161 57.294-23.366 83.585-25.762 11.482-1.047 23.153-.449 34.677-.948"/><path fill="#24173e" d="M471.832 157.219c10.054-.3 18.277 1.753 26.537 7.631 5.959 4.24 9.159 8.302 10.405 15.579 11.345 5.846 24.855 10.614 36.709 16.152 25.317 11.826 64.187 40.974 80.606 63.743 5.419 7.515 9.156 15.45 12.332 24.118.048-5.655-.018-11.312.476-16.95.584-6.662 1.156-22.214 6.607-26.376 6.462-4.935 14.923 5.48 19.302 9.366 2.804 2.489 5.719 4.771 8.972 6.649 16.9 9.761 33.539 7.952 51.747 11.29 22.754 4.171 49.268 17.377 62.577 36.719 4.991-5.124 9.99-10.255 15.683-14.614 18.118-13.872 41.569-20.189 64.049-21.617 10.636-.676 21.693-.663 31.729-4.685 3.179-1.273 6.38-2.696 9.254-4.571 6.177-4.029 22.46-18.666 28.268-19.291 1.605-.173 2.763.157 3.95 1.301 2.689 2.59 2.623 8.346 2.748 11.841 1.668 46.742-2.403 84.966-36.329 121.118-14.716 15.682-36.53 28.832-57.642 33.729-7.878 1.827-15.809 2.387-23.864 2.637 2.392 79.727 4.884 152.935-25.224 228.615q-1.388 3.534-2.847 7.039t-2.988 6.981-3.127 6.92-3.265 6.856-3.401 6.789-3.536 6.72-3.67 6.647q-1.869 3.306-3.803 6.573t-3.933 6.495-4.062 6.416-4.19 6.333q-2.126 3.145-4.316 6.247-2.189 3.103-4.439 6.161t-4.563 6.07q-2.311 3.012-4.683 5.977t-4.801 5.883-4.918 5.785q-2.488 2.868-5.033 5.686t-5.146 5.584-5.257 5.48-5.365 5.374-5.471 5.265-5.576 5.154-5.678 5.042-5.777 4.928-5.875 4.811-5.97 4.692q-3.009 2.317-6.063 4.572t-6.153 4.45q-3.099 2.194-6.241 4.326t-6.326 4.199q-3.184 2.069-6.409 4.073c-18.469 11.321-37.873 20.086-57.715 28.643-6.68 3.022-13.804 5.075-20.807 7.2q-6.734 1.996-13.537 3.743t-13.666 3.243-13.776 2.738-13.867 2.229-13.94 1.717-13.993 1.203-14.029.688q-7.02.215-14.044.171c-46.208-.677-102.537-14.404-143.587-35.525-15.925-8.194-30.242-17.997-44.803-28.348-14.851-10.557-29.207-21.362-41.93-34.478-10.232-10.549-20.227-21.249-29.327-32.801q-2.474-3.198-4.862-6.461t-4.688-6.589-4.509-6.713-4.327-6.83-4.143-6.945-3.955-7.053-3.765-7.156-3.571-7.255-3.376-7.348-3.178-7.435q-1.539-3.739-2.977-7.519-1.438-3.779-2.774-7.595t-2.57-7.667-2.364-7.733-2.155-7.793q-1.026-3.912-1.946-7.849c-3.365-14.056-6.238-27.631-7.69-42.046-1.77-17.575-1.678-35.192-1.376-52.829-3.466-2.241-6.987-4.452-10.129-7.14-23.489-20.097-23.04-56.185-25.213-84.561-3.91-2.071-8.38-4.057-11.788-6.889-3.25-2.7-4.673-5.96-5.019-10.132-.63-7.611-1.133-31.77 4.08-37.469 3.121-3.411 7.92-5.599 12.316-6.884 8.497-2.485 18.074-2.881 26.871-3.92 15.453-1.824 30.664-3.923 46.239-4.299 2.926-2.542 5.321-5.682 7.788-8.661-13.912-2.436-27.571-7.425-37.88-17.397-6.447-6.238-10.465-14.079-10.543-23.158-.086-10.118 4.603-19.031 11.653-26.018 23.557-23.344 69.191-27.816 101.002-27.533 2.425-7.253 3.929-14.926 6.051-22.287 6.643-23.034 17.382-44.554 37.051-59.1 10.361-7.662 22.17-12.626 34.306-16.708 42.406-14.266 84.348-13.58 128.086-7.169 7.348-4.841 13.743-5.652 22.366-6.194"/><path fill="#fceddd" d="M302.376 607.084c3.462-.661 11.262-2.518 14.306-.902-1.646 1.87-3.861 2.586-6.163 3.38l-1.323.313c-1.551-1.886-4.539-2.204-6.82-2.791"/><path fill="#5e0a41" d="M310.519 609.562c2.302-.794 4.517-1.51 6.163-3.38.101 1.495.123 2.571.976 3.87 1.887.761 3.535.137 5.492-.23-3.515 1.8-7.234 3.468-10.572 5.568-1.215-1.915-1.857-3.563-2.059-5.828"/><path fill="#ee8a84" d="m468.39 168.233.77-.057c5.668-.399 17.156 1.113 21.484 5.271.753.724.558.793.61 1.757-7.531-2.516-15.316-3.926-22.805-6.324z"/><path fill="#de454a" d="M543.144 351.287c1.018-2.448 2.164-4.8 3.351-7.169.481 1.931.742 3.709 2.55 4.836 1.096.682 2.345 1.216 3.512 1.768-.579.957-.55 3.779-.761 5.018-2.368.404-6.658-3.133-8.652-4.453"/><path fill="#a52d53" d="M554.097 322.994c.615 1.707 1.456 3.12 3.15 3.946 1.364.665 2.982.695 4.472.736-1.989 3.226-2.204 5-1.795 8.756-2.58-2.525-5.182-3.803-8.493-5.064 1.052-2.785 2.005-5.464 2.666-8.374"/><path fill="#fcb330" d="M549.607 426.406c.053.298.112.594.158.893.197 1.27-.101 2.159-.458 3.356-.437 1.469-.779 1.916-.225 3.368.793.329 1.576.666 2.384.956 1.367.489 1.802.855 2.635 2.044-1.252-.403-2.493-.848-3.737-1.275l-.334.352.896 1.027c-.147.157-.284.325-.441.472-1.001.942-2.221 1.554-3.41 2.221l.113 1.006 1.811 1.394-11.193-2.798c1.683-.669 3.441-1.31 5.037-2.171 4.347-2.343 5.39-6.475 6.764-10.845"/><path fill="#ee8a84" d="M624.37 290.19c.238.216.488.42.715.649 4.01 4.049 7.444 13.007 7.555 18.629-2.764-2.394-5.502-5.03-8.674-6.867q-.041-6.213.404-12.411"/><path fill="#5f5f78" d="M597.956 385.533c4.545.567 22.808 14.754 27.105 18.494l-10.954-2.013-20.674-4.877c1.106-.531 2.64-.003 3.855.175 2.48-1.736 4.806-5.334 6.972-7.618-2.169-1.255-4.226-2.76-6.304-4.161"/><path fill="#fa5b53" d="M623.508 315.176c3.524 2.414 7.14 4.92 10.352 7.736.514 4.213.865 8.404-.002 12.599l-.703.382c-3.98-3.179-7.718-5.296-12.438-7.232 1.207-4.391 1.902-9.015 2.791-13.485m-72.077 16.192c3.311 1.261 5.913 2.539 8.493 5.064.841 3.109.948 7.826-.638 10.722-.934 1.704-1.933 2.594-3.838 3.088-.956.249-1.907.4-2.891.48-1.167-.552-2.416-1.086-3.512-1.768-1.808-1.127-2.069-2.905-2.55-4.836 1.851-4.161 3.356-8.48 4.936-12.75m47.747-54.703c5.448 2.383 11.363 6.381 16.038 10.078.192 4.059-.099 8.226-.192 12.293-5.012-3.489-10.358-6.031-15.944-8.466.42-4.585.15-9.303.098-13.905"/><path fill="#de454a" d="M594.949 247.858c13.318 7.259 19.183 19.257 27.02 31.359-7.571-6.191-15.556-10.701-23.768-15.906-.395-3.23-.617-11.41-2.419-13.729z"/><path fill="#fa5b53" d="M593.838 326.307q8.173 4.655 16.297 9.396c-1.155 4.247-2.236 8.52-2.57 12.918-4.873-4.168-10.292-6.695-16.058-9.36 1.072-4.269 1.677-8.606 2.331-12.954m3.502-24.472c5.535 3.242 11.368 5.728 17.261 8.234-.222 4.53-.967 9.081-1.906 13.513-5.854-2.681-11.667-5.296-17.059-8.842.378-4.311 1.104-8.618 1.704-12.905"/><path fill="#fcfcf7" d="M151.651 604.125c4.258 3.185 8.194 6.773 12.181 10.286-.263.916-.472 1.354-.271 2.305-.622 7.538 2.437 24.276.941 29.868l-1.305.972q-3.916-10.558-6.809-21.44t-4.737-21.991"/><path fill="#fa5b53" d="M617.992 339.526c5.86 2.579 11.708 4.913 16.493 9.273.002 4.539-.024 9.305-1.163 13.722q-8.605-5.029-17.366-9.783.958-6.615 2.036-13.212m-29.082 10.857c5.461 3.204 11.112 6 16.799 8.771-.846 5.077-1.626 10.137-3.034 15.096-5.54-3.7-11.079-7.424-17.012-10.47.93-4.493 2.137-8.944 3.247-13.397m-26.647-11.557c6.502 3.297 14.312 5.325 20.204 9.583q-1.326 6.206-2.899 12.354c-6.243-3.977-13.556-6.768-20.053-10.425a193 193 0 0 1 2.748-11.512m5.672-23.697c5.499.169 14.152 4.923 18.78 7.834q-1.21 6.847-2.585 13.663c-6.641-3.027-12.972-6.554-19.227-10.307 2.361-2.399 1.719-7.948 3.032-11.19"/><path fill="#fcfcf7" d="M259.765 634.843c-.436-.23-.76-.545-1.132-.866l.249-.945c11.407-12.478 27.255-21.579 43.494-25.948 2.281.587 5.269.905 6.82 2.791-8.192 3.082-17.097 5.955-24.775 10.212-7.723 4.284-15.615 14.359-24.656 14.756m-110.052-49.015c-1.163-10.851-3.026-35.148-1.504-45.548 1.225-.627 2.352-.254 3.699-.125q.295 5.821.745 11.631l3.16 2.814c.117 4.789 1.145 34.895.142 37.294-1.91-2.14-4.161-4.086-6.242-6.066"/><path fill="#fa5b53" d="M614.967 362.963c5.504 4.579 11.829 8.135 17.922 11.868-1.127 5.388-2.461 10.695-3.855 16.018-.157.009-15.126-9.484-17.415-10.594 1.725-5.667 2.569-11.44 3.348-17.292"/><defs><linearGradient id="b" x1="589.936" x2="587.738" y1="444.002" y2="457.503" gradientUnits="userSpaceOnUse"><stop offset="0" stop-color="#e89f2b"/><stop offset="1" stop-color="#d9883b"/></linearGradient></defs><path fill="url(#b)" d="m550.926 437.127-.896-1.027.334-.352c1.244.427 2.485.872 3.737 1.275 11.832 4.857 24.12 6.919 36.047 11.215 6.57 1.643 12.963 4.021 19.328 6.32 1.139.342 2.295.651 3.405 1.081 4.638 1.132 8.615 1.938 13.417 1.275 2.584.802 5.233 1.261 7.845 1.952-2.697 2.309-5.391 4.461-8.685 5.851-19.25-3.247-38.146-10.252-56.727-16.155-6.331-2.011-13.797-3.469-19.732-6.342l-1.811-1.394-.113-1.006c1.189-.667 2.409-1.279 3.41-2.221.157-.147.294-.315.441-.472"/><path fill="#bb6518" d="m550.926 437.127-.896-1.027.334-.352c1.244.427 2.485.872 3.737 1.275 11.832 4.857 24.12 6.919 36.047 11.215-.444.238-.629.371-1.083.511-6.156 1.903-31.953-8.318-38.139-11.622"/><path fill="#fcfcf7" d="M230.83 339.298c6.188 2.132 12.064 5.193 18.375 6.924-4.825 3.672-11.432 5.403-16.622 8.956q-5.806 3.906-11.051 8.537c-3.01 2.671-5.792 5.625-9.132 7.891q-10.029-.041-20.041-.64c10.167-12.563 24.543-23.51 38.471-31.668"/><path fill="#a52d53" d="M449.16 355.801c8.143 1.622 16.327 3.408 24.584 4.35 9.469 1.08 46.821 2.256 54.088-.504l.678-.795c2.111 1.014 4.695 1.791 6.375 3.436l.278 1.211c-2.025 2.915-22.976 6.541-27.713 7.375-17.784 3.13-34.055-.802-51.271-4.554-3.699-.806-9.416-1.303-12.567-3.184l.271-.315c1.68-.352 3.269.239 4.721 1.094.815.48 1.216.737 2.203.721.287-.471.355-.518.507-1.132.323-1.314-.204-4.6-1.1-5.582-.394-.432-.798-.82-1.176-1.282z"/><path fill="#4c9fc2" d="M819.321 394.401c4.983-2.616 11.842-3.113 17.325-4.546 12.967-3.389 27.03-8.657 38.453-15.577 22.018-13.34 36.656-34.53 45.238-58.414 1.768-4.921 3.54-14.051 7.34-17.467l-.369 1.25.821.694c-4.729 32.815-19.919 58.287-46.615 78.15-13.554 10.085-38.651 20.843-55.918 18.327-2.387-.348-4.23-1.174-6.275-2.417"/><path fill="#b3c4d3" d="M178.633 684.562q.176.14.35.282c4.466 3.711 7.839 8.641 12.305 12.445 9.584 8.164 20.994 15.475 31.434 22.537l.582-.648c1.028 2.271 1.947 4.827 3.38 6.866 2.229 5.517 2.939 11.474 5.169 16.947 5.443 13.361 14.162 26.117 21.516 38.535-8.5-8.38-17.326-16.561-25.448-25.305-16.425-17.681-40.942-49.073-49.288-71.659m428.824 74.019c5.686 1.95 11.242 3.705 17.229 4.513 25.128 3.389 64.189-2.019 86.972-13.214 2.735-1.344 5.37-2.84 7.989-4.395-7.488 9.166-21.554 24.855-32.651 28.646-6.862 2.345-16.684 3.263-23.947 3.993-23.716 2.387-43.853-2.833-65.697-11.277l-2.803-.934c3.775-.727 6.833-4.94 10.649-6.326.785-.286 1.507-.643 2.259-1.006"/><path fill="#fcfcf7" d="M787.33 349.13c.649-4.337 1.199-8.731 2.158-13.011 7.22-32.233 36.903-48.819 67.906-52.859 13.672-1.782 27.574-.851 40.979-4.717 8.391-2.42 17.083-6.243 24.147-11.436 2.267-1.666 4.144-3.854 6.491-5.353l.541.575c-2.963 6.545-7.226 11.276-12.118 16.471-17.588 16.755-41.977 12.846-63.97 17.099-9.822 1.899-19.849 5.946-28.7 10.574q-1.789.93-3.52 1.965t-3.398 2.17-3.262 2.369-3.116 2.559q-1.519 1.326-2.957 2.74-1.439 1.413-2.79 2.91-1.352 1.497-2.612 3.072t-2.424 3.221c-3.424 4.86-9.277 19.337-13.355 21.651"/><path fill="#fad335" d="M630.982 425.072c4.753 1.745 9.709 3.337 14.246 5.592 9.045 2.503 18.689 7.13 25.355 13.814.947.95 9.056 10.628 9.116 10.636.293.039 1.433-.552 1.73-.707 3.673 6.578 13.673 32.146 11.68 39.393-1.195 1.713-2.387 2.45-4.46 2.84-3.057.576-6.134.02-9.151-.507-8.16-14.807-13.535-41.683-30.185-49.062-5.989 2.594-10.314 7.563-15.17 11.795-2.612-.691-5.261-1.15-7.845-1.952-4.802.663-8.779-.143-13.417-1.275-1.11-.43-2.266-.739-3.405-1.081 2.072-1.153 4.383-1.237 6.615-2.042l.576-1.52.309.006c1.091.029 2.185.062 3.276.012 3.208-.146 6.947-1.657 9.032-4.151 3.153-3.77 2.682-7.724 2.23-12.229 1.658-3.633-.424-5.896-.532-9.562"/><path fill="#fbf83c" d="M630.982 425.072c4.753 1.745 9.709 3.337 14.246 5.592-3.592-.165-6.419-2.194-9.831-2.907-1.069-.223-1.131-.115-1.983.471 1.756 4.73 4.306 9.69 2.124 14.713-1.701 3.918-5.671 6.444-6.156 10.633.792-.29 12.901-11.884 13.384-12.89.672-1.4 1.187-2.918 1.715-4.376.292 1.657.47 2.606-.515 4.044-3.049 4.449-13.071 13.587-17.668 16.562-4.802.663-8.779-.143-13.417-1.275-1.11-.43-2.266-.739-3.405-1.081 2.072-1.153 4.383-1.237 6.615-2.042l.576-1.52.309.006c1.091.029 2.185.062 3.276.012 3.208-.146 6.947-1.657 9.032-4.151 3.153-3.77 2.682-7.724 2.23-12.229 1.658-3.633-.424-5.896-.532-9.562"/><path fill="#fcfcf7" d="M145.689 328.156c-1.392-5.077-.85-9.827 1.057-14.687 4.387-11.183 13.378-16.745 23.929-21.379 37.085-16.286 78.607-11.976 117.537-7.216 12.15 1.485 24.463 2.377 36.536 4.389 10.157 1.693 20.109 4.246 30.132 6.581 29.287 6.823 55.697 14.407 83.81 25.28-.36.454-.771.763-1.217 1.128-7.797 1.374-17.834-2.199-25.423-4.126-10.267-4.032-22.175-5.661-32.9-8.387-12.551-3.19-24.784-7.278-37.456-10.096-.297.047-.593.098-.89.14-1.283.185-2.351-.044-3.575-.435-.004 1.211.31 1.813.887 2.864-.191 1.106-.261 2.08-.906 3.026l-.655.215c.135.054.275.098.406.161.974.476 1.749 1.322 2.454 2.128-8.619-4.006-16.999-7.491-26.055-10.396-6.445-2.009-12.994-4.146-19.585-5.612-36.391-8.098-92.806-10.956-126.656 6.669-8.347 4.346-17.255 13.223-19.885 22.457-.636 2.231-.305 5.402-1.545 7.296"/><path fill="#fab59d" d="M313.36 297.346c8.066-2.598 20.551-.798 28.334 2.297-.297.047-.593.098-.89.14-1.283.185-2.351-.044-3.575-.435-.004 1.211.31 1.813.887 2.864-.191 1.106-.261 2.08-.906 3.026l-.655.215c.135.054.275.098.406.161.974.476 1.749 1.322 2.454 2.128-8.619-4.006-16.999-7.491-26.055-10.396"/><path fill="#fa5b53" d="M558.813 220.999c11.806 5.683 16.728 10.635 26.534 18.799 3.119 2.597 6.899 5.055 9.602 8.06l.833 1.724q-.612 5.98-.598 11.992c-6.723-3.728-14.374-8.027-21.613-10.58-.9 4.206-1.632 7.75.071 11.899q10.812 5.397 21.389 11.242c-.05 4.883-.898 9.195-2.299 13.861-7.172-3.257-13.307-6.987-19.628-11.669-2.691 3.82-3.68 7.29-4.077 11.912 6.962 4.035 14.681 6.63 21.609 10.672-.418 4.671-1.519 9.205-2.471 13.787-6.371-4.923-13.857-8.21-21.611-10.295q-.094.368-.194.734c-.255.926-.638 1.747-1.024 2.624-.672 1.529-1.378 3.348-.933 5.049.471 1.801 2.104 3.252 3.532 4.319-1.313 3.242-.671 8.791-3.032 11.19-1.374.276-2.048.464-3.184 1.357-1.49-.041-3.108-.071-4.472-.736-1.694-.826-2.535-2.239-3.15-3.946 2.326-8.307 4.407-16.402 5.664-24.954 5.014-20.536 7.662-44.08 2.919-64.96-.933-4.106-2.465-8.114-3.867-12.081"/><defs><linearGradient id="c" x1="492.296" x2="429.643" y1="313.731" y2="361.07" gradientUnits="userSpaceOnUse"><stop offset="0" stop-color="#d5344b"/><stop offset="1" stop-color="#ff6957"/></linearGradient></defs><path fill="url(#c)" d="M404.383 325.167q-.184-.122-.367-.247c-.203-.14-.401-.285-.604-.424-1.014-.695-2.012-1.357-2.868-2.253-1.932-2.022-3.679-4.035-3.659-6.95l1.015-.26-.52-.106c3.384 1.091 10.528 3.782 13.899 3.328.258-.035.514-.086.771-.129 7.589 1.927 17.626 5.5 25.423 4.126.446-.365.857-.674 1.217-1.128 9.893.908 33.885 12.577 43.375 16.762q23.405 10.079 46.445 20.966l-.678.795c-7.267 2.76-44.619 1.584-54.088.504-8.257-.942-16.441-2.728-24.584-4.35-3.769-1.484-7.831-2.53-11.701-3.75-.297-1.379.019-2.48.044-3.855.071-4.017-4.348-9.686-7.072-12.632-7.068-7.646-15.959-9.982-26.048-10.397"/><path fill="#26cbee" d="M155.813 554.6c5.773 1.772 13.596 5.113 19.514 5.044.927 3.945 1.805 8.22 5.575 10.462 3.692 2.197 9.743 2.261 13.958 3.073 1.183 5.265 2.367 10.355 4.603 15.297 9.149 20.224 29.556 35.929 47.077 48.677-27.241-6.548-53.279-16.589-76.233-32.88-4.928-3.498-10.649-7.307-14.268-12.232-.033-.046-.056-.098-.084-.147 1.003-2.399-.025-32.505-.142-37.294"/><path fill="#fcfcf7" d="M163.832 614.411c10.453 7.438 21.458 13.296 33.008 18.841 3.568 1.713 7.324 3.068 10.852 4.85.036 33.258 6.396 50.226 15.612 81.076l-.582.648c-10.44-7.062-21.85-14.373-31.434-22.537-4.466-3.804-7.839-8.734-12.305-12.445q-.174-.142-.35-.282c-4.549-7.679-7.507-15.916-10.655-24.229-1.729-4.223-3.458-8.403-4.781-12.777l1.305-.972c1.496-5.592-1.563-22.33-.941-29.868-.201-.951.008-1.389.271-2.305"/><path fill="#d5d4dd" d="M163.561 616.716c.59.754.919 1.306 1.107 2.264.918 4.691 3.975 36.127 3.557 39.903-.094.846-.09.757-.247 1.45-1.729-4.223-3.458-8.403-4.781-12.777l1.305-.972c1.496-5.592-1.563-22.33-.941-29.868"/><path fill="#fcfcf7" d="M94.47 407.717c-.083-4.104-1.176-11.749 1.966-14.795 3.213-3.113 16.344-4.103 21.112-4.764 43.469-6.03 88.644-8.875 132.314-2.978 11.288 1.524 23.58 2.86 32.207 11 2.114 1.995 4.885 5.865 7.556 6.906 2.019.787 36.928.484 42.203.234 3.906-4.192 7.49-9.098 12.477-12.061 11.996-7.128 50.797-8.426 65.803-8.939q12.142-.406 24.289-.281 12.148.126 24.279.784t24.22 1.847q12.091 1.189 24.117 2.906c9.368 1.328 23.858 2.008 31.078 8.607.906.828 1.614 1.712 2.323 2.708.005 3.141.091 6.307-.1 9.442l-.528-.07c-.72-.879-.547-.529-.927-1.427-.821-1.942-1.648-3.788-3.091-5.369-7.814-8.554-68.617-11.659-82.884-12.166-22.016-.784-86.373-.854-104.624 6.886-5.232 2.219-7.823 6.044-11.914 9.625-1.595 1.396-3.393 2.479-5.439 3.065-8.923 2.555-33.107 1.2-42.931.496-5.82-3.887-9.143-10.792-15.987-13.23-26.111-9.301-98.589-7.498-128.336-4.877-6.272.553-12.449 1.668-18.678 2.544-8.292 1.166-16.955 1.693-24.65 5.212-1.886 2.605-3.053 7.063-5.856 8.695"/><path fill="#0d72ac" d="M591.087 746.195c-.011-6.844-.111-13.451-1.817-20.131-4.615-18.073-16.682-34.195-13.404-53.815.034 12.674 7.547 25.167 16.342 33.953 18.971 18.949 51.937 32.319 78.659 32.143 19.787-.13 39.433-5.684 57.002-14.495 5.677-2.848 11.275-5.813 15.698-10.476.234-.247.463-.5.694-.749l.993.719c-.126 2.664-14.137 16.614-16.997 19.19-12.776 11.508-41.217 18.779-58.039 21.221-11.792 1.712-27.486 2.51-39.41 1.778-8.262-.507-16.279-2.951-24.495-3.853-4.75-.521-10.217.799-14.795-.447-5.236-1.425-10.275-4.461-15.373-6.423-.438-.544-.922-1.09-1.337-1.653-2.07-2.81-12.337-4.964-16.409-9.004 5.148 2.061 29.289 13.265 32.389 13.064z"/><path fill="#b3c4d3" d="M243.076 734.041c5.338 3.364 47.566 26.851 52.348 25.923.324-.063.62-.228.929-.343.753 1.12 1.768 3.168 2.809 3.97 13.089 29.345 45.319 65.336 72.051 83.271-29.241-8.534-62.895-22.822-85.382-43.602-2.014-9.961-12.007-18.001-18.312-25.565-10.261-12.308-21.272-27.743-24.443-43.654"/><path fill="#fcfcf7" d="M551.408 402.944c-.011-1.646-.261-2.871.535-4.332 1.009-.492 1.806-.669 2.934-.476 2.5.426 4.958 1.617 7.419 2.271 2.975.791 6.04 1.186 9.029 2.003 6.203 1.697 12.255 3.845 18.432 5.618 14.092 4.046 28.664 6.945 42.539 11.724 23.739 8.176 36.678 11.766 49.133 34.655-.297.155-1.437.746-1.73.707-.06-.008-8.169-9.686-9.116-10.636-6.666-6.684-16.31-11.311-25.355-13.814-4.537-2.255-9.493-3.847-14.246-5.592.108 3.666 2.19 5.929.532 9.562.452 4.505.923 8.459-2.23 12.229-2.085 2.494-5.824 4.005-9.032 4.151-1.091.05-2.185.017-3.276-.012l-.309-.006-.576 1.52c-2.232.805-4.543.889-6.615 2.042-6.365-2.299-12.758-4.677-19.328-6.32-11.927-4.296-24.215-6.358-36.047-11.215-.833-1.189-1.268-1.555-2.635-2.044-.808-.29-1.591-.627-2.384-.956-.554-1.452-.212-1.899.225-3.368.357-1.197.655-2.086.458-3.356-.046-.299-.105-.595-.158-.893q1.221-11.706 1.801-23.462"/><path fill="#f7f06c" d="M564.684 408.141c10.47-.139 35.712 8.206 46.55 11.405 6.453 1.587 13.724 2.76 19.748 5.526.108 3.666 2.19 5.929.532 9.562-1.407-3.993-3.786-6.391-7.613-8.231-3.738-1.797-7.903-2.642-11.95-3.429.102 7.9-.191 16.963-2.338 24.636-1.304-2.043-.891-4.49-.437-6.707l.08.94c1.378-6.368 2.054-12.09 1.455-18.605-2.043 6.418-1.101 12.785-4.914 18.676l-.621-.247c2.978-6.47 3.313-12.873 3.744-19.877-2.04-.687-4.084-1.058-6.194-1.448-1.164-1.368-1.974-2.547-3.813-2.878-.986.644-1.528.835-1.86 2.042-.168.613-.012 1.405-.1 2.022-.019.133-.11.245-.164.367-.095-.823-.266-1.542-.472-2.342-1.313-1.331-3.239-1.402-5.005-1.694-.94-.572-1.109-.593-2.153-.654l-.702.748c-1.523-1.955-5.422-2.155-7.773-2.62q-.176 2.947-.705 5.851t-1.403 5.724c-.823-3.252-1.722-6.637-3.438-9.55-.876-1.487-1.931-2.787-3.607-3.248-1.528 3.653-3.211 7.151-5.061 10.651-.055-5.005.365-10.355-.668-15.26l-1.551-.229z"/><path fill="#030213" d="M596.789 421.895c.054-.122.145-.234.164-.367.088-.617-.068-1.409.1-2.022.332-1.207.874-1.398 1.86-2.042 1.839.331 2.649 1.51 3.813 2.878 2.11.39 4.154.761 6.194 1.448-.431 7.004-.766 13.407-3.744 19.877-1.519 1.252-3.021 2.55-4.882 3.263-1.853.711-3.835.868-5.635-.083-3.553-1.877-4.941-6.212-5.953-9.809-.267-5.656 1.459-11.662 2.606-17.179 1.766.292 3.692.363 5.005 1.694.206.8.377 1.519.472 2.342"/><path fill="#fff19c" d="M596.789 421.895c.054-.122.145-.234.164-.367.088-.617-.068-1.409.1-2.022.332-1.207.874-1.398 1.86-2.042 1.839.331 2.649 1.51 3.813 2.878-.429 3.806.004 13.77-2.572 16.466-.911.953-1.653.766-2.845.736-1.248-.942-1.737-1.546-1.915-3.137-.443-3.961 1.138-8.479 1.395-12.512"/><path fill="#030213" d="M611.951 422.974c4.047.787 8.212 1.632 11.95 3.429 3.827 1.84 6.206 4.238 7.613 8.231.452 4.505.923 8.459-2.23 12.229-2.085 2.494-5.824 4.005-9.032 4.151-1.091.05-2.185.017-3.276-.012l-.309-.006c-2.341-.639-4.717-1.171-6.885-2.283l-.169-1.103c2.147-7.673 2.44-16.736 2.338-24.636"/><path fill="#fff19c" d="M617.226 432.77q1.423-.011 2.807.321c1.576.373 3.293 1.413 4.04 2.908 1.175 2.349.663 4.376-.231 6.712-1.243.563-3.115 1.419-4.491 1.375-1.418-.046-1.673-.421-2.542-1.389-1.005-3.191-.121-6.695.417-9.927"/><defs><linearGradient id="d" x1="585.905" x2="561.955" y1="415.7" y2="427.105" gradientUnits="userSpaceOnUse"><stop offset="0" stop-color="#000"/><stop offset="1" stop-color="#04042a"/></linearGradient></defs><path fill="url(#d)" d="m564.251 409.272 1.551.229c1.033 4.905.613 10.255.668 15.26 1.85-3.5 3.533-6.998 5.061-10.651 1.676.461 2.731 1.761 3.607 3.248 1.716 2.913 2.615 6.298 3.438 9.55q.874-2.82 1.403-5.724t.705-5.851c2.351.465 6.25.665 7.773 2.62l.702-.748c1.044.061 1.213.082 2.153.654-1.147 5.517-2.873 11.523-2.606 17.179l-.386 1.374c-2.432.999-7.14 2.458-9.668 2.074-1.17-.114-2.624-.327-3.536-1.167-2.001-1.843-1.821-6.992-2.168-9.644-1.137 2.246-2.453 5.794-4.337 7.46-1.027.908-1.609.967-2.933.929-2.657-4.748-5.838-20.117-6.235-25.877 1.381-.893 3.183-.789 4.808-.915"/><path fill="#fff19c" d="m588.457 417.953.702-.748c1.044.061 1.213.082 2.153.654-1.147 5.517-2.873 11.523-2.606 17.179l-.386 1.374c-2.432.999-7.14 2.458-9.668 2.074 4.347-6.239 7.451-13.326 9.805-20.533"/><path fill="#fad335" d="M551.408 402.944c4.469 1.536 8.724 4.092 13.276 5.197l-.433 1.131c-1.625.126-3.427.022-4.808.915.397 5.76 3.578 21.129 6.235 25.877 1.324.038 1.906-.021 2.933-.929 1.884-1.666 3.2-5.214 4.337-7.46.347 2.652.167 7.801 2.168 9.644.912.84 2.366 1.053 3.536 1.167 2.528.384 7.236-1.075 9.668-2.074l.386-1.374c1.012 3.597 2.4 7.932 5.953 9.809 1.8.951 3.782.794 5.635.083 1.861-.713 3.363-2.011 4.882-3.263l.621.247c3.813-5.891 2.871-12.258 4.914-18.676.599 6.515-.077 12.237-1.455 18.605l-.08-.94c-.454 2.217-.867 4.664.437 6.707l.169 1.103c2.168 1.112 4.544 1.644 6.885 2.283l-.576 1.52c-2.232.805-4.543.889-6.615 2.042-6.365-2.299-12.758-4.677-19.328-6.32-11.927-4.296-24.215-6.358-36.047-11.215-.833-1.189-1.268-1.555-2.635-2.044-.808-.29-1.591-.627-2.384-.956-.554-1.452-.212-1.899.225-3.368.357-1.197.655-2.086.458-3.356-.046-.299-.105-.595-.158-.893q1.221-11.706 1.801-23.462"/><path fill="#26cbee" d="M249.205 346.222q30.69 3.179 61.058 8.638 30.367 5.46 60.243 13.17c4.465 1.156 11.629 1.966 15.492 3.999l-.089.147-.859-.075.107.259c-1.271.184-2.578.313-3.834.576-14.074.742-31.026 2.7-43.23 10.265-4.285 2.657-8.018 6.149-11.882 9.368-10.017-.555-19.821-.689-29.818.371-.72-1.099-1.459-2.192-2.331-3.179-14.917-16.872-59.649-16.336-81.662-18.155 3.34-2.266 6.122-5.22 9.132-7.891q5.245-4.631 11.051-8.537c5.19-3.553 11.797-5.284 16.622-8.956"/><path fill="#fa5b53" d="M346.925 602.595c16.262-5.13 43.249-2.909 58.514 5.089 1.742.913 3.294 2.005 4.881 3.161l1.38.998c-6.386 4.758-12.515 10.078-19.396 14.106-7.718 4.517-16.629 8.87-25.137 11.585-24.449 7.804-55.08 7.97-80.363 4.267-7.914-1.158-20.563-6.777-27.039-6.958 9.041-.397 16.933-10.472 24.656-14.756 7.678-4.257 16.583-7.13 24.775-10.212l1.323-.313c.202 2.265.844 3.913 2.059 5.828 3.338-2.1 7.057-3.768 10.572-5.568 3.75-.419 8.717-3.068 12.394-4.335 3.734-1.287 7.517-2.107 11.381-2.892"/><path fill="#fceddd" d="M346.925 602.595c.192.111.381.229.577.332 2.881 1.524 7.364.296 10.72 1.739-.244.629-.041.462-.572.701-6.059 2.725-14.223 3.297-20.754 4.997-5.973 1.555-11.895 3.91-17.922 5.136-1.721.351-4.072.881-5.763.184-.215-.088-.422-.196-.633-.294 3.338-2.1 7.057-3.768 10.572-5.568 3.75-.419 8.717-3.068 12.394-4.335 3.734-1.287 7.517-2.107 11.381-2.892"/><path fill="#b3c4d3" d="m579.677 775.18.936.196c29.779 13.305 56.216 19.879 89.177 15.776-15.177 11.122-29.505 21.699-46.569 29.911-3.739 1.8-8.091 4.08-12.223 4.748-6.363 1.027-21.48-.966-28.264-2.027-18.401-2.876-38.463-11.203-54.68-20.249-6.097-3.402-11.927-7.328-17.916-10.92l.052-.564c4.875-.132 9.697-2.02 14.531-2.7 6.503-.916 13.067-1.297 19.554-2.358 12.428-2.034 24.065-6.454 35.402-11.813"/><path fill="#0d72ac" d="M230.83 339.298c9.657-10.079 49.126-23.653 62.656-23.944 9.142-.196 18.402 4.39 26.775 7.696 8.275 3.266 16.783 6.157 24.858 9.891 17.629 8.152 34.463 18.049 52.085 26.173 9.78 4.509 20.017 7.689 29.903 11.893-15.161.997-30.593 1.857-45.784 1.929 1.256-.263 2.563-.392 3.834-.576l-.107-.259.859.075.089-.147c-3.863-2.033-11.027-2.843-15.492-3.999q-29.876-7.71-60.243-13.17-30.368-5.459-61.058-8.638c-6.311-1.731-12.187-4.792-18.375-6.924"/><path fill="#4c9fc2" d="M280.663 321.989c.661.008 1.31.144 1.963.245-10.449 2.029-21.053 8.368-30.366 13.333l.25.874-.805-1.104-.573.571.788-.182-.759.256 1.268-.16-.607-.25c.506-1.037 4.782-3.128 5.943-3.861.192-.145.391-.28.575-.436.827-.699.811-.856.944-1.893-.521-.549-.176-.301-1.133-.582-1.362.837-2.034 1.814-2.945 3.119l-.368.534-.449-.173-.02-1.071c1.177-1.919 3.29-4.373 5.331-5.395 2.095-1.049 7.239-2.743 9.417-2.025-.704 1.174-.807 1.094-.486 2.405 3.813-.455 8.234-3.021 12.032-4.205"/><path fill="#b3c4d3" d="M491.459 189.813c11.369 2.568 34.684 12.012 44.041 19.253 2.56 1.981 4.522 4.308 6.241 7.027 3.245 5.135 6.048 11.036 7.536 16.944 6.047 24.015-.297 55.849-5.888 79.705-2.627 11.212-5.997 24.115-12.096 33.894-14.446-7.706-29.451-13.844-44.498-20.251-8.665-3.69-17.247-7.651-25.998-11.131-22.081-8.781-45.344-16.676-68.202-23.076 4.695-.304 8.348 2.609 12.658 2.483.846-.024 1.053-.513 1.621-1.063l-.32-.911c-.78-.498-1.533-1.028-2.394-1.377-.13-.052-.266-.091-.398-.137 13.87 2.697 28.001 5.988 41.511 10.163 12.1 3.74 24.151 8.408 36.462 11.318 9.563 2.26 19.586 2.207 28.117-3.217 9.645-6.132 15.494-17.195 17.827-28.126 1.462-6.849 1.833-14.104 2.029-21.104.631-22.532-3.836-42.262-21.806-57.07-3.114-2.566-14.308-9.618-16.024-12.553-.148-.252-.279-.514-.419-.771M317.495 770.202c12.421 4.348 24.86 9.139 37.55 12.642 7.657 2.113 15.57 3.579 23.332 5.274 3.375.737 7.697 2.365 11.11 2.283.68.775 1.333 1.523 2.101 2.215 5.283 6.497 11.225 12.168 17.322 17.888 22.153 20.78 46.556 37.363 74.287 49.745-22.655 1.791-46.969-.184-69.032-5.592-8.561-2.099-15.435-6.145-22.905-10.665-19.171-11.601-34.338-25.337-49.321-41.889-9.041-9.988-17.493-20.328-24.444-31.901m94.463 22.231c20.635 2.061 39.993 3.175 60.746 2.778 4.747-.091 10.444.39 14.977-.981 2.072 1.62 4.123 3.226 6.331 4.661 7.815 6.184 16.248 11.209 24.948 16.017 24.401 13.485 42.237 19.251 69.897 22.915-16.97 7.439-54.47 17.75-72.84 16.911-5.02-.229-9.876-1.812-14.659-3.236-31.988-9.528-67.166-34.39-89.4-59.065"/><path fill="#fcfcf7" d="M207.692 638.102c4.071 1.436 8.129 2.87 12.275 4.081a272 272 0 0 0 28.328 6.703c6.29 1.144 13.785 1.715 19.772 3.792-.457 25.547 5.052 51.79 14.395 75.525 4.196 10.661 9.25 20.952 13.891 31.418-.309.115-.605.28-.929.343-4.782.928-47.01-22.559-52.348-25.923l-2.212-3.447c-2.418-.711-4.725-1.923-7.076-2.842-1.97-.771-5.166-2.551-7.104-1.708-1.433-2.039-2.352-4.595-3.38-6.866-9.216-30.85-15.576-47.818-15.612-81.076"/><path fill="#5a80a0" d="M207.692 638.102c4.071 1.436 8.129 2.87 12.275 4.081-1.268 5.694.507 13.433 1.458 19.19 3.01 18.215 6.889 35.133 13.037 52.555 1.981 5.615 3.854 11.275 6.402 16.666-2.418-.711-4.725-1.923-7.076-2.842-1.97-.771-5.166-2.551-7.104-1.708-1.433-2.039-2.352-4.595-3.38-6.866-9.216-30.85-15.576-47.818-15.612-81.076"/><path fill="#fcfcf7" d="M649.707 340.911c1.96 2.037 3.663 6.905 5.131 9.473q3.576 6.14 7.721 11.911c14.969 20.716 38.648 36.552 63.011 43.882 8.035 2.418 16.323 3.763 24.596 5.059-6.251 23.706-11.86 46.641-26.234 67.05-5.346 6.907-11.885 11.165-17.877 17.231-.655-6.633-1.458-13.287-3.154-19.746-3.619-13.777-13.808-35.434-23.9-45.683-4.515-4.585-10.024-8.143-15.785-10.953-7.742-3.776-16.4-5.429-23.835-9.842l-.681-.408c7.077-22.396 9.858-44.582 11.007-67.974"/><path fill="#4c9fc2" d="M660.034 383.176c5.22 2.832 9.163 7.945 13.93 11.482 19.204 14.25 34.783 21.93 58.153 27.497-4.121 14.207-5.154 23.212-12.32 37.061-1.588 2.838-3.323 5.61-4.992 8.403-1.155-3.688-2.289-7.406-3.757-10.984-2.205-5.374-5.23-10.332-8.207-15.305-12.333-20.603-24.766-28.331-46.605-37.444.299-6.941 2.244-13.959 3.798-20.71"/><defs><linearGradient id="e" x1="298.445" x2="302.984" y1="359.126" y2="289.737" gradientUnits="userSpaceOnUse"><stop offset="0" stop-color="#a9294b"/><stop offset="1" stop-color="#ef5259"/></linearGradient></defs><path fill="url(#e)" d="M145.689 328.156c1.24-1.894.909-5.065 1.545-7.296 2.63-9.234 11.538-18.111 19.885-22.457 33.85-17.625 90.265-14.767 126.656-6.669 6.591 1.466 13.14 3.603 19.585 5.612 9.056 2.905 17.436 6.39 26.055 10.396-.705-.806-1.48-1.652-2.454-2.128-.131-.063-.271-.107-.406-.161l.655-.215c.645-.946.715-1.92.906-3.026-.577-1.051-.891-1.653-.887-2.864 1.224.391 2.292.62 3.575.435.297-.042.593-.093.89-.14 12.672 2.818 24.905 6.906 37.456 10.096 10.725 2.726 22.633 4.355 32.9 8.387-.257.043-.513.094-.771.129-3.371.454-10.515-2.237-13.899-3.328l.52.106-1.015.26c-.02 2.915 1.727 4.928 3.659 6.95.856.896 1.854 1.558 2.868 2.253.203.139.401.284.604.424q.183.125.367.247c10.089.415 18.98 2.751 26.048 10.397 2.724 2.946 7.143 8.615 7.072 12.632-.025 1.375-.341 2.476-.044 3.855 3.87 1.22 7.932 2.266 11.701 3.75l-.122.839c.378.462.782.85 1.176 1.282.896.982 1.423 4.268 1.1 5.582-.152.614-.22.661-.507 1.132-.987.016-1.388-.241-2.203-.721-1.452-.855-3.041-1.446-4.721-1.094l-.271.315c-30.663-6.561-57.851-23.987-85.757-37.469-15.071-7.28-31.306-14.488-47.242-19.598-15.171-4.866-30.879-8.37-46.504-11.412-26.156-5.091-55.648-5.011-81.041 3.594-5.256 1.781-10.413 3.656-15.023 6.807-5.426 3.709-12.812 9.948-13.906 16.761-.716 4.459.885 7.296 3.405 10.741 4.991-5.484 5.818-12.65 12.13-17.355 21.838-16.276 68.38-13.46 94.239-9.63-8.345 4.769-17.916 7.358-26.418 12.164-11.316 6.397-22.871 14.513-32.859 22.821-4.745 3.946-8.965 8.495-13.813 12.317l-.544.424c-11.424-3.678-23.083-4.599-33.483-11.276-5.055-3.246-9.763-7.8-11.107-13.869"/><path fill="#fa5b53" d="M339.415 307.742c-.705-.806-1.48-1.652-2.454-2.128-.131-.063-.271-.107-.406-.161l.655-.215c.645-.946.715-1.92.906-3.026-.577-1.051-.891-1.653-.887-2.864 1.224.391 2.292.62 3.575.435.297-.042.593-.093.89-.14 12.672 2.818 24.905 6.906 37.456 10.096 10.725 2.726 22.633 4.355 32.9 8.387-.257.043-.513.094-.771.129-3.371.454-10.515-2.237-13.899-3.328l.52.106-1.015.26c-.02 2.915 1.727 4.928 3.659 6.95.856.896 1.854 1.558 2.868 2.253.203.139.401.284.604.424q.183.125.367.247c10.089.415 18.98 2.751 26.048 10.397 2.724 2.946 7.143 8.615 7.072 12.632-.025 1.375-.341 2.476-.044 3.855-7.933-2.809-16.043-5.069-23.843-8.275-19.222-7.9-37.356-17.857-56.006-26.92-3.908-1.899-15.461-6.502-18.195-9.114"/><path fill="#0d72ac" d="M295.034 441.724c10.891-.918 18.683-1.732 29.741-.523.256 9.608.347 19.777 1.961 29.253 7.637 26.471 9.83 47.451 36.443 61.995 28.738 15.706 82.498 16.821 113.72 7.563 16.596-4.92 29.06-14.896 37.157-30.171 7.97-15.035 11.714-44.733 13.763-62.158 8.365 1.01 15.918 4.799 23.913 7.24 23.83 7.277 49.336 16.07 73.384 21.731 10.437-2.858 16.552-7.905 23.952-15.611 3.241 6.133 5.853 12.268 8.151 18.821-1.289-.227-2.817-.886-3.916-.132-1.825 1.252-3.061 3.206-4.811 4.567-5.042 3.92-13.196 6.039-19.286 7.441-29.425-6.001-60.442-22.301-90.486-23.375-.713 11.506-2.19 24.179-7.613 34.491-1.83 2.277-3.3 4.673-2.998 7.729.05.506.127.824.227 1.35-4.746 6.053-8.503 11.42-11.547 18.517-.819-.288-1.129-.274-1.972-.218q-1.486 1.954-3.044 3.851c-15.567 18.887-29.426 22.625-53.112 24.82-29.824 2.764-79.132 1.981-103.036-18.248-19.697-16.67-28.691-43.614-30.659-68.762q-.086-.301-.167-.604c-1.153-4.426.503-12.582-4.256-15.241-4.229-2.363-15.803-.909-20.543.209-4.512 30.748-12.624 65.616-39.003 85.205-18.446 13.698-44.194 16.722-66.442 17.813-1.691.083-8.537-.214-9.129 1.473l.387.898c-3.487-.775-6.941-1.544-10.486-2.004-5.918.069-13.741-3.272-19.514-5.044l-3.16-2.814q-.45-5.81-.745-11.631c11.055 1.934 21.573 2.946 32.766 3.628 6.468.395 12.937.83 19.421.555 18.724-.795 45.688-5.752 59.942-18.554 20.621-18.523 29.45-57.125 30.997-84.06"/><path fill="#fcfcf7" d="M268.067 652.678c4.836 1.183 9.618 1.505 14.55 1.886.096.007.184.053.276.079 16.556 3.312 35.2 3.651 51.996 2.324.745 8.052 1.26 16.254 2.563 24.233 5.059 30.973 18.393 60.235 35.495 86.324 5.168 7.883 11.442 14.923 16.54 22.877-3.413.082-7.735-1.546-11.11-2.283-7.762-1.695-15.675-3.161-23.332-5.274-12.69-3.503-25.129-8.294-37.55-12.642l-3.283-3.279c-3.109-.757-12.573-3.92-15.05-3.332-1.041-.802-2.056-2.85-2.809-3.97-4.641-10.466-9.695-20.757-13.891-31.418-9.343-23.735-14.852-49.978-14.395-75.525"/><path fill="#5a80a0" d="M268.067 652.678c4.836 1.183 9.618 1.505 14.55 1.886.096.007.184.053.276.079-.664.182-1.306.119-1.628.797-1.103 2.325-.251 7.092-.051 9.723 1.8 23.671 8.009 48.592 17.702 70.289 2.765 6.189 5.87 12.212 8.794 18.325 2.097 4.383 3.901 9.037 6.502 13.146-3.109-.757-12.573-3.92-15.05-3.332-1.041-.802-2.056-2.85-2.809-3.97-4.641-10.466-9.695-20.757-13.891-31.418-9.343-23.735-14.852-49.978-14.395-75.525"/><path fill="#fcfcf7" d="M399.577 646.119q.107.347.209.695c1.062 3.694 1.187 8.074 1.815 11.921q1.654 10.42 4.667 20.531c11.894 40.727 36.674 74.057 67.191 102.807 4.547 4.284 9.592 7.976 14.222 12.157-4.533 1.371-10.23.89-14.977.981-20.753.397-40.111-.717-60.746-2.778l-2.709-2.265c-3.533.345-15.624.495-17.661 2.448-.768-.692-1.421-1.44-2.101-2.215-5.098-7.954-11.372-14.994-16.54-22.877-17.102-26.089-30.436-55.351-35.495-86.324-1.303-7.979-1.818-16.181-2.563-24.233 4.346-.468 8.72-.703 13.072-1.174 15.836-2.094 36.165-5.782 51.616-9.674"/><path fill="#5a80a0" d="M334.889 656.967c4.346-.468 8.72-.703 13.072-1.174 3.409 49.005 25.293 100.465 61.288 134.375-3.533.345-15.624.495-17.661 2.448-.768-.692-1.421-1.44-2.101-2.215-5.098-7.954-11.372-14.994-16.54-22.877-17.102-26.089-30.436-55.351-35.495-86.324-1.303-7.979-1.818-16.181-2.563-24.233"/><path fill="#0d72ac" d="M917.434 278.8c4.892-5.195 9.155-9.926 12.118-16.471.788 5.685 1.143 33.902-1.423 38.012l-.821-.694.369-1.25c-3.8 3.416-5.572 12.546-7.34 17.467-8.582 23.884-23.22 45.074-45.238 58.414-11.423 6.92-25.486 12.188-38.453 15.577-5.483 1.433-12.342 1.93-17.325 4.546-2.2-.748-4.394-1.57-6.66-2.095l-.122.775c-1.139 7.475-.626 15.477-.575 23.041.111 16.17.709 32.331.811 48.507q-.042 19.999-.565 39.991c-.231 11.914-.218 23.795-1.415 35.665-4.976 49.327-25.028 112.754-52.405 154.216-.084-1.999-.073-4.051-.337-6.033.033-.74.07-.923-.042-1.719-.342-2.428-2.778-4.387-4.665-5.623-5.924-3.881-13.01-5.696-19.263-8.988-12.452-6.555-24.385-14.728-35.587-23.24 5.42-1.169 11.038-1.812 16.265-3.729 10.755-3.946 26.573-16.898 33.72-25.817l2.482-4.21c1.267-1.794 2.403-4.176 2.558-6.386 1.174-2.884 3.297-7.422 5.416-9.664l.675.102c3.764-3.577 7.1-13.74 9.482-18.696 11.853-24.654 19.03-51.167 24.152-77.963 2.126-11.121 3.169-22.291 4.455-33.526l5.189-43.081c1.17-9.245 1.849-19.113 4.234-28.131 1.29-4.879 3.228-9.325 6.42-13.275 11.892-14.714 32.845-16.989 49.15-24.342 8.607-3.881 16.879-9.656 23.907-15.93 20.033-17.885 29.283-38.907 30.833-65.45"/><path fill="#fcfcf7" d="M464.385 623.519c.92-1.186 4.497-2.665 5.89-3.448 3.907 11.357 7.702 22.955 12.872 33.814 13.222 27.769 35.376 50.862 59.821 69.135 4.635 4.52 9.933 7.787 15.431 11.133 4.072 4.04 14.339 6.194 16.409 9.004.415.563.899 1.109 1.337 1.653-4.678-1.209-12.87-6.977-17.02-5.652 10.042 6.245 20.368 10.35 31.593 13.863 5.563 1.74 11.399 3.224 16.739 5.56-.752.363-1.474.72-2.259 1.006-3.816 1.386-6.874 5.599-10.649 6.326l2.803.934c-1.183.112-2.433.215-3.577.548-2.194.638-11.335 5.557-12.772 7.174-.358.403-.297.36-.39.807l-.936-.196c-11.337 5.359-22.974 9.779-35.402 11.813-6.487 1.061-13.051 1.442-19.554 2.358-4.834.68-9.656 2.568-14.531 2.7l-.052.564c-.259-.036-.52-.065-.778-.109-1.885-.319-3.128-2.067-5.025-2.039-4.917 3.24-7.121 4.711-13.092 4.886.979 1.058 2.286 2.159 2.769 3.538-2.208-1.435-4.259-3.041-6.331-4.661-4.63-4.181-9.675-7.873-14.222-12.157-30.517-28.75-55.297-62.08-67.191-102.807q-3.013-10.111-4.667-20.531c-.628-3.847-.753-8.227-1.815-11.921q-.102-.347-.209-.695c3.721-1.028 7.607-1.687 11.385-2.491 15.712-4.782 31.441-9.984 46.384-16.837l1.914-1.13c1.73-.667 3.425-1.4 5.125-2.142"/><defs><linearGradient id="f" x1="507.934" x2="395.783" y1="723.87" y2="715.374" gradientUnits="userSpaceOnUse"><stop offset="0" stop-color="#5a6b95"/><stop offset="1" stop-color="#6e8ea2"/></linearGradient></defs><path fill="url(#f)" d="M399.577 646.119c3.721-1.028 7.607-1.687 11.385-2.491l.277.644c2.713 6.432 3.611 13.927 5.287 20.714 1.966 7.96 4.609 15.875 7.45 23.559 3.658 9.897 8.04 19.706 13.454 28.78 14.763 24.739 46.761 62.16 72.76 74.726l-.052.564c-.259-.036-.52-.065-.778-.109-1.885-.319-3.128-2.067-5.025-2.039-4.917 3.24-7.121 4.711-13.092 4.886.979 1.058 2.286 2.159 2.769 3.538-2.208-1.435-4.259-3.041-6.331-4.661-4.63-4.181-9.675-7.873-14.222-12.157-30.517-28.75-55.297-62.08-67.191-102.807q-3.013-10.111-4.667-20.531c-.628-3.847-.753-8.227-1.815-11.921q-.102-.347-.209-.695"/><defs><linearGradient id="g" x1="525.853" x2="504.882" y1="696.959" y2="716.747" gradientUnits="userSpaceOnUse"><stop offset="0" stop-color="#636f91"/><stop offset="1" stop-color="#7a8fa3"/></linearGradient></defs><path fill="url(#g)" d="M464.385 623.519c.92-1.186 4.497-2.665 5.89-3.448 3.907 11.357 7.702 22.955 12.872 33.814 13.222 27.769 35.376 50.862 59.821 69.135 4.635 4.52 9.933 7.787 15.431 11.133 4.072 4.04 14.339 6.194 16.409 9.004.415.563.899 1.109 1.337 1.653-4.678-1.209-12.87-6.977-17.02-5.652 10.042 6.245 20.368 10.35 31.593 13.863 5.563 1.74 11.399 3.224 16.739 5.56-.752.363-1.474.72-2.259 1.006-3.816 1.386-6.874 5.599-10.649 6.326l2.803.934c-1.183.112-2.433.215-3.577.548-2.194.638-11.335 5.557-12.772 7.174-.358.403-.297.36-.39.807l-.936-.196c-3.579-2.513-8.114-4.336-12.005-6.406q-9.864-5.245-19.077-11.565c-49.252-34.205-71.628-73.937-90.56-129.793l-.689-.625 1.914-1.13c1.73-.667 3.425-1.4 5.125-2.142"/><path fill="#5f5f78" d="M459.26 625.661c5.859 4.364 8.175 9.201 12.747 14.5.832 1.808 1.725 3.588 2.287 5.503-.702-.577-1.085-.972-1.557-1.762-2.043-3.415-11.288-14.751-14.702-16.486l-.689-.625z"/><path fill="#35456c" d="M464.385 623.519c4.511 4.962 7.121 9.865 7.622 16.642-4.572-5.299-6.888-10.136-12.747-14.5 1.73-.667 3.425-1.4 5.125-2.142"/><path fill="#fcfcf7" d="m594.549 765.913-3.652-.93c-21.867-5.502-66.425-38.075-78.073-58.172-.602-1.04-.521-.995-.217-2.157 14.867 12.91 28.598 25.688 46.518 34.504 10.042 6.245 20.368 10.35 31.593 13.863 5.563 1.74 11.399 3.224 16.739 5.56-.752.363-1.474.72-2.259 1.006-3.816 1.386-6.874 5.599-10.649 6.326"/><defs><linearGradient id="h" x1="498.143" x2="515.447" y1="688.045" y2="676.079" gradientUnits="userSpaceOnUse"><stop offset="0" stop-color="#1f1a38"/><stop offset="1" stop-color="#2a4580"/></linearGradient></defs><path fill="url(#h)" d="M464.385 623.519c.92-1.186 4.497-2.665 5.89-3.448 3.907 11.357 7.702 22.955 12.872 33.814 13.222 27.769 35.376 50.862 59.821 69.135 4.635 4.52 9.933 7.787 15.431 11.133 4.072 4.04 14.339 6.194 16.409 9.004.415.563.899 1.109 1.337 1.653-4.678-1.209-12.87-6.977-17.02-5.652-17.92-8.816-31.651-21.594-46.518-34.504-1.296-2.276-5.91-5.785-8.005-7.968-2.854-2.973-5.617-6.168-8.069-9.483-3.327-4.498-6.024-9.642-8.898-14.442-2.319-3.872-5.04-7.712-6.965-11.793-2.289-4.856-3.776-10.083-6.167-14.893l-.209-.411c-.562-1.915-1.455-3.695-2.287-5.503-.501-6.777-3.111-11.68-7.622-16.642"/><path fill="#fcfcf7" d="M256.758 269.796q2.355-8.877 5.098-17.643c8.211-26.97 18.103-48.076 44.21-61.866 6.164-3.256 12.697-5.489 19.296-7.669 37.532-12.402 80.209-14.356 118.93-6.544 8.928 1.801 17.963 3.818 26.643 6.601 6.901 2.212 13.593 5.012 20.524 7.138.14.257.271.519.419.771 1.716 2.935 12.91 9.987 16.024 12.553 17.97 14.808 22.437 34.538 21.806 57.07-.196 7-.567 14.255-2.029 21.104-2.333 10.931-8.182 21.994-17.827 28.126-8.531 5.424-18.554 5.477-28.117 3.217-12.311-2.91-24.362-7.578-36.462-11.318-13.51-4.175-27.641-7.466-41.511-10.163.132.046.268.085.398.137.861.349 1.614.879 2.394 1.377l.32.911c-.568.55-.775 1.039-1.621 1.063-4.31.126-7.963-2.787-12.658-2.483-20.53-5.624-41.475-11.035-62.483-14.534-10.88-1.812-21.982-2.73-32.938-4.088-13.354-1.656-26.947-3.525-40.416-3.76"/><path fill="#24173e" d="M381.343 204.448c5.116 1.644 11.084 1.786 16.437 2.178-3.541 9.069-10.718 32.877-10.225 41.975 1.793 3.011 3.992 6.09 7.455 7.321 1.867.664 3.838.353 5.597-.474 3.189-1.498 5.682-4.462 7.314-7.516 2.802-5.241 4.006-11.753 5.77-17.45 2.232-7.209 4.724-14.351 7.14-21.501 6.023 1.178 12.126 1.994 18.193 2.911-1.777 3.872-3.344 7.673-4.641 11.734q-2.433 9.401-4.992 18.769c-3.081 10.882-7.533 20.941-17.892 26.647q-.737.407-1.494.778-.756.371-1.53.703-.774.333-1.563.627-.79.294-1.592.549-.803.255-1.618.47-.814.215-1.638.389-.825.175-1.656.308-.832.134-1.669.226t-1.678.143-1.683.06-1.684-.023-1.681-.107-1.674-.189-1.662-.271q-.828-.157-1.647-.354t-1.627-.434c-5.961-1.772-11.241-5.474-14.163-11.059-1.724-3.298-2.391-6.858-2.35-10.557.143-12.864 8.286-33.181 12.453-45.853m-69.536-1.698c1.216-.28.642-.335 1.726.092.318 4.682-1.039 9.963-1.568 14.644-.801 7.084-1.294 14.183-2.263 21.25 4.817-12.385 11.631-23.758 18.584-35.044 4.269-.196 8.46-.73 12.692-1.287.148 11.776.568 23.569.015 35.337 5.012-11.743 10.136-22.955 17.073-33.704 6.009.469 12.123.383 18.152.485-5.313 7.716-9.351 16.213-14.274 24.187-2.649 4.974-5.827 9.663-8.578 14.586-4.411 7.896-8.389 15.885-13.704 23.241-4.109-.888-8.353-.876-12.534-.761-1.003-10.622-1.67-20.999-1.723-31.671-6.798 9.343-12.62 19.883-18.74 29.711-4.204-1.069-8.445-1.299-12.763-1.373-.455-19.489-.177-39.684.882-59.157 5.723.052 11.318-.128 17.023-.536m138.527 9.913c8.71 1.671 17.73 3.033 26.245 5.493 9.988 2.884 19.531 8.486 24.512 17.944 4.139 7.859 4.011 17.306 1.275 25.597-3.324 10.07-10.064 17.179-19.439 21.905-3.702 1.408-7.228 2.528-11.199 2.847-11.809.949-28.262-4.143-40.084-6.794 1.499-8.835 4.668-17.552 7.032-26.201 3.738-13.68 6.875-27.41 11.658-40.791"/><path fill="#fcfcf7" d="M463.28 232.549c6.672 1.846 15.582 4.533 19.546 10.635 2.397 3.691 2.516 8.015 1.43 12.169-1.488 5.692-4.383 9.081-9.42 11.955-7.183 2.694-14.111.441-21.269-1.121q4.735-16.854 9.713-33.638"/><defs><linearGradient id="i" x1="317.336" x2="316.594" y1="532.692" y2="389.293" gradientUnits="userSpaceOnUse"><stop offset="0" stop-color="#f4b72d"/><stop offset="1" stop-color="#fbd62f"/></linearGradient></defs><path fill="url(#i)" d="M287.976 409.373c9.824.704 34.008 2.059 42.931-.496 2.046-.586 3.844-1.669 5.439-3.065 4.091-3.581 6.682-7.406 11.914-9.625 18.251-7.74 82.608-7.67 104.624-6.886 14.267.507 75.07 3.612 82.884 12.166 1.443 1.581 2.27 3.427 3.091 5.369.38.898.207.548.927 1.427l.528.07-.441 10.107c-.728 14.491-12.268 9.535-20.853 17.483q-.203.19-.403.383c-1.869 6.615-1.931 13.923-2.743 20.741-2.121 17.805-6.647 42.749-18.78 56.452-12.577 14.205-31.126 18.763-49.448 19.742-19.357 1.034-52.31.589-70.591-6.302-7.14-2.691-13.632-7.035-19.253-12.159-19.329-17.617-20.814-55.172-21.825-79.779q-2.712-1.502-5.593-2.65t-5.883-1.922c-14.026-3.638-27.833-2.692-40.413 4.672-.862 5.033-.816 10.25-1.521 15.323-2.653 19.086-8.465 44.874-20.558 60.288-10.484 13.363-27.677 18.737-43.924 20.678-19.811 2.366-51.861 1.598-70.592-5.001q-1.968-.7-3.871-1.561-1.903-.86-3.728-1.875t-3.56-2.178-3.368-2.464c-22.658-18.083-19.092-52.727-22.368-78.556-1.378-10.86-9.359-9.33-16.548-14.985-.067-5.667.014-11.4.42-17.053 2.802-1.632 3.97-6.09 5.855-8.695 7.695-3.519 16.358-4.046 24.65-5.212 6.229-.876 12.406-1.991 18.678-2.544 29.747-2.621 102.225-4.424 128.336 4.877 6.844 2.438 10.167 9.343 15.987 13.23"/><path fill="#fff19c" d="M501.691 437.958c2.88 5.096 1.13 13.565-.471 19.045-.464 1.591-1.137 2.734-2.364 3.87.351-7.592 1.722-15.39 2.835-22.915m-233.61-4.752c.908.621 1.423.643 1.683 1.769 1.201 5.215-1.24 16.076-3.294 20.9-.54.217-1.021.443-1.599.534 1.212-7.7 2.489-15.441 3.21-23.203"/><path fill="#24173e" d="M516.554 401.664c1.654.054 3.331.086 4.951.458 2.274.523 4.391 1.721 5.596 3.785.858 1.471 1.033 3.302.576 4.933-.917 3.272-3.814 5.722-6.699 7.237-2.189.024-3.94-.309-5.814-1.486-2.558-1.606-4.786-4.312-5.437-7.306-.354-1.626-.155-3.372.826-4.75 1.5-2.105 3.596-2.47 6.001-2.871"/><defs><linearGradient id="j" x1="117.056" x2="101.188" y1="404.732" y2="413.916" gradientUnits="userSpaceOnUse"><stop offset="0" stop-color="#160f1b"/><stop offset="1" stop-color="#1d132f"/></linearGradient></defs><path fill="url(#j)" d="M107.198 401.587c2.196-.221 4.678-.487 6.814.183 2.124.666 4.239 2.087 5.232 4.129.877 1.804.88 3.693.174 5.553-1.381 3.641-4.464 4.868-7.727 6.439-2.363.178-4.248-.115-6.459-.99-2.45-.971-4.717-2.549-5.7-5.101-.668-1.733-.482-3.624.402-5.243 1.515-2.777 4.387-4.078 7.264-4.97"/><path fill="#24173e" d="M264.871 456.409c-1.17 3.44-1.547 7.563-2.337 11.145-2.772 12.569-6.908 27.216-16.676 36.276-15.197 14.096-43 12.814-62.377 12.144-15.39-.533-35.191-1.729-46.213-13.751-3.057-3.334-5.339-7.163-6.945-11.385-5.869-15.424-7.569-46.087-6.735-63.26.386-7.954 1.837-13.954 8.005-19.462 12.673-11.32 45.393-10.198 62.203-10.154 8.231.022 16.513-.114 24.733.35 12.667.715 36.734 2.161 45.285 12.182 5.549 6.502 4.778 14.807 4.267 22.712-.721 7.762-1.998 15.503-3.21 23.203"/><path fill="#c7e0e4" d="M136.602 432.925c3.226 3.914 5.135 6.343 10.438 6.852l.545.048c-3.529 3.269-6.981 6.616-10.95 9.355-.698-5.602-.683-10.643-.033-16.255"/><path fill="#35456c" d="M240.157 411.225c3.525.97 7.991 1.798 10.766 4.285.282.713.552.926.263 1.709-1.721 4.657-18.077 14.815-23.03 17.616-1.313.742-3.16 1.174-4.336 2.013-.604.432-.84.977-1.137 1.615-2.544-.476-5.2-.634-7.776-.911 7.954-9.242 17.633-16.859 25.25-26.327"/><path fill="#5a80a0" d="M137.195 471.617c3.291-2.699 6.638-5.336 9.682-8.318 3.631-3.558 10.455-13.05 14.554-14.951 1.494 5.229 4.162 11.308 4.93 16.582-.898 1.144-.932 1.523-.99 3.009-.011.263-.015.528-.023.792-2.59 3.277-5.85 6.081-8.776 9.061-4.483 4.565-8.716 9.63-13.81 13.522-1.871-6.585-3.319-13.214-5.567-19.697"/><path fill="#fcfcf7" d="M214.907 437.552c2.576.277 5.232.435 7.776.911.413 5.203-.139 10.575-.262 15.792-.239 10.199.146 20.695-1.474 30.779-3.135-.069-6.026-.349-9.106-.936-.553-4.755-.939-9.482-.604-14.269-.261-.977-.682-1.92-1.048-2.862.005-1.869.419-3.813.677-5.668-2.415-1.773-6.305-6.005-9.009-6.586-1.053.342-1.438.527-2.206 1.363-.554.605-.989 1.051-1.678 1.518l-.769.51 1.343-2.102c1.161-1.797 2.026-3.083 2.427-5.211.016-.22.005-.444.049-.661.541-2.621 11.244-10.665 13.884-12.578"/><path fill="#35456c" d="M200.974 450.791c.827 1.503 1.335 2.613 2.915 3.458 3.202.547 5.821-1.369 8.549-2.819-.674 6.114-.491 12.335-1.201 18.399-.261-.977-.682-1.92-1.048-2.862.005-1.869.419-3.813.677-5.668-2.415-1.773-6.305-6.005-9.009-6.586-1.053.342-1.438.527-2.206 1.363-.554.605-.989 1.051-1.678 1.518l-.769.51 1.343-2.102c1.161-1.797 2.026-3.083 2.427-5.211"/><path fill="#fcfcf7" d="M136.602 432.925c2.216-8.466 7.073-16.146 14.768-20.718 3.74-2.222 20.454-5.385 24.374-3.924.271.101.494.3.741.45-.032 4.484-14.257 18.211-17.72 21.623-3.473 3.42-7.121 6.756-11.18 9.469l-.545-.048c-5.303-.509-7.212-2.938-10.438-6.852"/><path fill="#5a80a0" d="M199.309 407.965c7.008-.073 14.028.032 21.037.052-5.613 8.094-11.746 14.368-19.071 20.878-3.039 2.701-6.376 5.215-9.138 8.189-1.414.419-2.807.759-4.07 1.544-.983.453-1.685 1.11-2.5 1.807l.275 1.102q-.223.079-.445.161c-1.739.647-2.4.978-3.182 2.753-.389.883-.734 1.787-1.082 2.687l.461-.708-.56-.22c-.052-1.339.112-2.647.07-4.009-.974 1.614-4.76 10.737-5.695 11.426-.516.38-1.175.512-1.763.767q-1.335-3.606-2.477-7.278c.515-1.961.282-4.236.263-6.259 7.724-12.407 18.486-21.862 27.877-32.892"/><path fill="#fcfcf7" d="M192.137 437.084c2.442 1.143 4.114 2.583 5.911 4.579-3.399 7.986-11.941 27.454-16.554 33.801-1.177 1.62-2.869 3.513-4.788 4.253-.695.268-1.684.484-2.379.175-3.527-1.57-6.783-11.502-7.966-14.962-.768-5.274-3.436-11.353-4.93-16.582-.804-2.452-1.054-4.972-1.385-7.52 2.256-.534 5.467-1.761 7.616-.454 2.033 1.236 2.77 4.618 3.507 6.742q1.142 3.672 2.477 7.278c.588-.255 1.247-.387 1.763-.767.935-.689 4.721-9.812 5.695-11.426.042 1.362-.122 2.67-.07 4.009l.56.22-.461.708c.348-.9.693-1.804 1.082-2.687.782-1.775 1.443-2.106 3.182-2.753q.222-.082.445-.161l-.275-1.102c.815-.697 1.517-1.354 2.5-1.807 1.263-.785 2.656-1.125 4.07-1.544"/><path fill="#35456c" d="M173.646 454.394c.588-.255 1.247-.387 1.763-.767.935-.689 4.721-9.812 5.695-11.426.042 1.362-.122 2.67-.07 4.009l.56.22-.461.708c.348-.9.693-1.804 1.082-2.687.782-1.775 1.443-2.106 3.182-2.753q.222-.082.445-.161l-.275-1.102c.815-.697 1.517-1.354 2.5-1.807-3.658 9.048-7.888 18.435-9.997 27.976-1.85-3.945-3.105-8.067-4.424-12.21"/><path fill="#0d72ac" d="m197.204 458.104.769-.51c.689-.467 1.124-.913 1.678-1.518.768-.836 1.153-1.021 2.206-1.363 2.704.581 6.594 4.813 9.009 6.586-.258 1.855-.672 3.799-.677 5.668-.56 1.862-1.222 3.46-2.328 5.07-4.619 6.724-10.66 12.667-15.987 18.854-4.859 5.643-9.406 11.827-14.739 17.016-6.146-1.227-12.296-3.158-18.391-4.68 6.41-9.748 16.737-17.224 24.393-26.06 5.158-5.953 8.987-12.988 14.067-19.063"/><path fill="#24173e" d="M498.856 460.873c-1.152 3.187-1.279 7.759-1.821 11.162-1.863 11.699-5.809 24.183-14.704 32.481-14.467 13.496-39.5 13.515-58.204 12.851-6.66-.236-13.31-.991-19.931-1.718-14.252-1.565-28.237-3.203-38.467-14.37q-1.356-1.467-2.572-3.052-1.216-1.586-2.28-3.276-1.065-1.691-1.97-3.472-.904-1.781-1.641-3.638c-5.166-13.18-8.287-41.656-7.636-56.229.359-8.048 2.741-17.241 8.995-22.75 3.122-2.749 6.879-4.659 10.831-5.894 17.634-5.509 56.026-5.308 75.092-4.134 14.674.903 44.081.276 54.104 12.277 6.346 7.598 4.059 17.913 3.039 26.847-1.113 7.525-2.484 15.323-2.835 22.915"/><path fill="#b3c4d3" d="M366.211 426.015c-.101 3.968-.405 8.364 2.446 11.564 1.757 1.971 4.673 2.839 7.243 2.827 1.206-.005 2.412-.136 3.609-.271-5.518 5.843-11.284 11.573-17.344 16.855-.323-10.896-3.054-21.494 4.046-30.975"/><path fill="#5a80a0" d="M391.968 452.918c1.045 1.833 1.802 3.564 3.665 4.675.664 1.805.885 3.591 1.146 5.49-.959 1.609-.224 4.413-.011 6.232-5.139 10.042-14.274 18.515-21.897 26.783-2.723-5.299-5.956-10.238-9.244-15.193 2.782-3.894 22.171-24.681 26.341-27.987m1.21 54.608.434-.791c6.227-11.477 23.118-25.298 33.157-33.658.981 1.47 1.8 3.084 3.424 3.821.286 1.616.385 3.779 1.557 4.976 1.314.452 2.381.501 3.746.509-5.254 11.037-15.645 18.531-22.832 28.223-6.848-2.322-12.244-3.696-19.486-3.08m87.876-93.427c3.01 1.365 8.267 3.379 9.539 6.688.949 2.468-.129 5.159-1.305 7.36-4.602 8.616-25.283 29.195-33.515 35.724-2.3 1.824-4.683 3.184-7.313 4.468 1.6-5.208 9.275-7.786 11.486-13.445 1.718-4.398-.77-7.606-2.514-11.494-.275-4.652 2.188-7.034 5.119-10.339 5.842-6.586 12.287-12.73 18.503-18.962"/><path fill="#fcfcf7" d="M408.119 465.59c2.857-6.512 9.426-25.492 15.598-28.249 1.592-.711 3.03-.462 4.618.099 1.149 1.032 1.233 1.943 1.491 3.383l-10.615 21.271c-2.514 5.143-4.779 10.943-8.112 15.608-1.086 1.519-2.723 3.394-4.552 4.026-.98.339-1.521.291-2.512.113-3.622-2.223-6.168-14.369-7.256-18.758-.261-1.899-.482-3.685-1.146-5.49-.99-6.221-2.867-12.263-3.961-18.472 2.909-.691 5.881-1.204 8.814-1.789 1.038 5.557 3.053 10.815 4.789 16.181.72 4.113 1.705 8.061 2.844 12.077m-41.908-39.575c5.124-7.602 12.776-14.308 22.015-16.098 6.744-1.307 14.881-1.424 21.77-1.165-6.898 11.456-20.025 23.256-30.487 31.383-1.197.135-2.403.266-3.609.271-2.57.012-5.486-.856-7.243-2.827-2.851-3.2-2.547-7.596-2.446-11.564"/><path fill="#5a80a0" d="M439.352 407.431c6.304 2.072 12.222 2.203 18.793 2.481l1.003.35c-.916 3.365-8.145 9.34-10.852 11.883-4.013 4.929-12.765 16.149-18.47 18.678-.258-1.44-.342-2.351-1.491-3.383-1.588-.561-3.026-.81-4.618-.099-6.172 2.757-12.741 21.737-15.598 28.249-1.139-4.016-2.124-7.964-2.844-12.077 2.269-1.771 4.124-11.945 6.541-15.395 3.555-5.077 8.053-9.523 12.187-14.122 5.035-5.603 9.847-11.406 15.349-16.565"/><path fill="#4c9fc2" d="m458.145 409.912 1.003.35c-.916 3.365-8.145 9.34-10.852 11.883l-.733-.133c.927-2.083 4.011-4.157 5.476-6.148 1.012-1.375 1.305-2.228 1.033-3.902-1.122-1.255-3.662-1.427-5.267-1.797 3.134.021 6.213-.023 9.34-.253"/><path fill="#fcfcf7" d="M430.193 476.898c1.587-10.258 14.082-16.773 20.576-23.687.257-1.147.349-1.656-.292-2.758-2.742-4.715-12.317 2.616-17.071.914-1.241-1.319-1.548-2.257-1.45-4.071.126-2.355 1.053-4.292 2.876-5.806 3.277-2.722 8.298-3.562 12.428-3.114 4.344.47 7.4 1.624 10.172 5.024 1.744 3.888 4.232 7.096 2.514 11.494-2.211 5.659-9.886 8.237-11.486 13.445l-3.156 2.879c5.986 1.206 12.177.794 18.253.673.268 4.033.465 8.02.431 12.063-9.403.02-19.154-.469-28.492-1.571-1.365-.008-2.432-.057-3.746-.509-1.172-1.197-1.271-3.36-1.557-4.976"/><path fill="#26cbee" d="M654.065 263.697c-.02-1.691-.141-3.384.259-5.04 2.577 1.395 4.497 3.969 6.824 5.766 5.976 4.617 14.366 8.666 21.567 10.974 12.749 4.085 25.611 3.839 38.626 5.929 21.981 3.532 46.862 16.144 57.222 36.763.057.114.122.223.184.335 3.106 12.17 2.67 24.888 7.303 36.756.301-1.784.39-4.518 1.28-6.05 4.078-2.314 9.931-16.791 13.355-21.651q1.164-1.647 2.424-3.221t2.612-3.072 2.79-2.91q1.438-1.414 2.957-2.74 1.52-1.326 3.116-2.559t3.262-2.369 3.398-2.17 3.52-1.965c8.851-4.628 18.878-8.675 28.7-10.574 21.993-4.253 46.382-.344 63.97-17.099-1.55 26.543-10.8 47.565-30.833 65.45-7.028 6.274-15.3 12.049-23.907 15.93-16.305 7.353-37.258 9.628-49.15 24.342-3.192 3.95-5.13 8.396-6.42 13.275-2.385 9.018-3.064 18.886-4.234 28.131l-5.189 43.081c-1.286 11.235-2.329 22.405-4.455 33.526-5.122 26.796-12.299 53.309-24.152 77.963-2.382 4.956-5.718 15.119-9.482 18.696l-.675-.102c-2.119 2.242-4.242 6.78-5.416 9.664-.155 2.21-1.291 4.592-2.558 6.386l-2.482 4.21c-7.147 8.919-22.965 21.871-33.72 25.817-5.227 1.917-10.845 2.56-16.265 3.729-12.456-8.242-38.797-26.246-53.757-22.953-2.422.533-3.96 1.698-5.242 3.789-.845 1.378-1.775 2.686-2.382 4.192 25.111 2.153 41.843 18.643 61.722 31.794 8.176 5.409 16.54 11.04 25.151 15.73 4.573 2.492 9.39 4.569 14.069 6.855 2.062.885 3.918 1.882 5.82 3.07-9.258 16.13-30.791 26.157-48.124 30.892-12.712 3.473-28.546 3.437-41.497.787-24.605-4.118-50.557-18.087-63.586-39.979-2.646-4.446-3.885-13.971-8.737-16.285-.768-.032-1.381-.036-2.083.334-2.24 1.182-3.239 2.777-3.984 5.125-3.278 19.62 8.789 35.742 13.404 53.815 1.706 6.68 1.806 13.287 1.817 20.131l-.299 1.022c-3.1.201-27.241-11.003-32.389-13.064-5.498-3.346-10.796-6.613-15.431-11.133-24.445-18.273-46.599-41.366-59.821-69.135-5.17-10.859-8.965-22.457-12.872-33.814 2.77-2.629 6.425-4.641 9.436-7.047 4.145-3.311 17.36-16.368 19.697-20.432.742-1.291.871-2.133.514-3.558-3.286-3.491-10.155-3.741-14.676-4.477-1.408 4.822-2.59 9.184-6.074 13-16.583 18.164-64.063 36.199-88.365 37.519q6.444-3.431 12.735-7.137c20.07-11.848 42.449-33.68 48.427-56.847 3.991.45 8.645 1.522 12.615.981 1.09-.703 1.726-.997 2.06-2.369.423-1.733-.273-3.864-1.281-5.273-1.095-1.53-2.552-2.341-4.428-2.531-3.706-.376-21.577 4.678-26.471 5.604-17.74 3.356-34.919 4.53-52.913 5.572q-37.709 2.51-75.493 1.695c-25.08-.291-50.64-.595-75.525-3.875-15.055-1.983-29.722-6.778-44.72-9.248l-.387-.898c.592-1.687 7.438-1.39 9.129-1.473 22.248-1.091 47.996-4.115 66.442-17.813 26.379-19.589 34.491-54.457 39.003-85.205 4.74-1.118 16.314-2.572 20.543-.209 4.759 2.659 3.103 10.815 4.256 15.241q.081.303.167.604c1.968 25.148 10.962 52.092 30.659 68.762 23.904 20.229 73.212 21.012 103.036 18.248 23.686-2.195 37.545-5.933 53.112-24.82q1.558-1.897 3.044-3.851c.843-.056 1.153-.07 1.972.218 3.044-7.097 6.801-12.464 11.547-18.517-.1-.526-.177-.844-.227-1.35-.302-3.056 1.168-5.452 2.998-7.729 5.423-10.312 6.9-22.985 7.613-34.491 30.044 1.074 61.061 17.374 90.486 23.375 6.09-1.402 14.244-3.521 19.286-7.441 1.75-1.361 2.986-3.315 4.811-4.567 1.099-.754 2.627-.095 3.916.132 1.84 4.217 4.857 9.339 5.912 13.683q2.024 4.023 4.103 8.017 1.067 1.633 2.256 3.179c4.227 5.404 9.787 9.425 16.811 10.094 10.732 1.022 23.214-4.757 31.278-11.51 29.908-25.045 43.598-71.943 47.145-109.49l-.393-.969c-15.577 7.152-25.372 3.844-40.851-1.251-20.025-8.117-39.009-21.502-51.312-39.515-8.446-12.366-15.811-29.038-18.05-43.785-1.235-8.137-1.126-16.853-1.094-25.077.025-6.339-.128-13.319 1.041-19.543"/><path fill="#4c9fc2" d="M629.206 491.74c6.09-1.402 14.244-3.521 19.286-7.441 1.75-1.361 2.986-3.315 4.811-4.567 1.099-.754 2.627-.095 3.916.132 1.84 4.217 4.857 9.339 5.912 13.683l-.513.116c-2.612-2.593-4.495-8.763-6.026-12.174-3.81 2.836-6.999 7.042-11.679 8.437-3.088.92-8.288-.888-10.666 1.399 2.708 1.881 9.74.2 15.605 5.056l-.011.596c-2.301-.038-3.928-2.59-6.189-3.273-4.434-1.339-9.83-1.441-14.446-1.964"/><path fill="#5ee1f6" d="M727.325 527.125c1.771-14.479 2.703-14.197 11.317-25.303.926 6.54-.898 14.092-4.911 19.358-1.767 2.319-4.021 4.281-6.406 5.945"/><path fill="#4c9fc2" d="M542.968 723.02c1.55.177 3.148.371 4.621.91 7.655 2.797 14.685 7.429 21.911 11.123 7.136 3.648 14.998 6.527 21.587 11.142l-.299 1.022c-3.1.201-27.241-11.003-32.389-13.064-5.498-3.346-10.796-6.613-15.431-11.133"/><path fill="#0f5191" d="M742.89 610.102c-.661-.385-1.714-.992-2.168-1.594-.7-.927-.972-1.942-.6-3.071.975-2.967 5.538-5.172 8.221-6.183 3.81-1.437 6.829-1.883 10.594-.162-2.119 2.242-4.242 6.78-5.416 9.664-.155 2.21-1.291 4.592-2.558 6.386-3.079-1.305-5.456-2.56-7.999-4.732z"/><path fill="#4c9fc2" d="M753.521 608.756c-.155 2.21-1.291 4.592-2.558 6.386-3.079-1.305-5.456-2.56-7.999-4.732l-.074-.308c3.777.085 7.018-.333 10.631-1.346"/><path fill="#0f5191" d="M708.741 601.664c3.982-.172 8.424.036 12.209 1.31 2.624.883 7.294 3.35 8.209 6.224.363 1.141.45 2.057-.149 3.129-1.433 2.562-5.074 4.152-7.688 5.086-5.063.414-11.064.857-15.702-1.569-2.262-1.183-4.363-3.173-5.039-5.708-.395-1.482-.188-2.993.692-4.269 1.8-2.608 4.482-3.673 7.468-4.203m-8.823-31.084q3.698-.196 7.4-.147c4.664.077 12.489-.241 15.873 3.572 1.339 1.508 1.714 3.529 1.554 5.492-.253 3.083-2.352 4.891-4.538 6.811-3.818.97-8.209.808-12.117.425-3.729-.364-8.257-1.238-10.65-4.421-1.537-2.044-1.789-4.857-1.269-7.306.484-2.284 1.869-3.23 3.747-4.426"/><defs><linearGradient id="k" x1="560.754" x2="570.554" y1="621.305" y2="589.36" gradientUnits="userSpaceOnUse"><stop offset="0" stop-color="#057dbc"/><stop offset="1" stop-color="#0cb1dc"/></linearGradient></defs><path fill="url(#k)" d="M525.623 591.06c12.474 13.03 26.722 22.851 45.486 23.331 16.567.424 27.835-5.96 39.639-16.868-.259 4.315-2.37 8.907-5.177 12.13-7.038 8.08-18.396 12.623-28.915 13.142-14.884.734-28.445-2.584-39.583-12.841-4.739-4.363-11.137-12.179-11.45-18.894"/><path fill="#fcfcf7" d="M637.115 633.926c25.111 2.153 41.843 18.643 61.722 31.794 8.176 5.409 16.54 11.04 25.151 15.73 4.573 2.492 9.39 4.569 14.069 6.855l-.713.802c-2.663-.12-5.142.247-7.832-.148-5.078-.747-9.846-2.709-14.54-4.696-6.623-2.804-13.07-5.839-19.208-9.61-13.589-8.347-25.785-18.318-40.171-25.456-8.575-4.254-18.095-5.227-27.125-8.145 2.601-3.266 4.755-5.355 8.647-7.126m16.95-370.229c-.02-1.691-.141-3.384.259-5.04 2.577 1.395 4.497 3.969 6.824 5.766 5.976 4.617 14.366 8.666 21.567 10.974 12.749 4.085 25.611 3.839 38.626 5.929 21.981 3.532 46.862 16.144 57.222 36.763.057.114.122.223.184.335-2.141 3.422-1.284 8.596-.757 12.434-3.719-5.38-7.361-11.022-11.885-15.768-4.236-4.445-9.398-7.994-14.704-11.036-16.562-9.494-30.375-10.872-48.722-13.19-12.009-1.517-21.771-3.565-31.949-10.458-6.62-4.484-11.351-10.832-16.665-16.709"/><path fill="#0d72ac" d="M723.48 391.617c3.532-.589 17.074 3.691 22.417 4.388 2.308.302 6.404 1.186 8.343-.309l-.084-.91c-1.902-.315-3.959-.457-5.634-1.464-.031-.364-.067-.946-.167-1.284-.268-.907-.709-1.434-1.6-1.77-5.676-2.142-14.334-1.782-20.476-5.311-4.448-2.555-9.53-3.927-14.132-6.197-3.414-1.684-6.538-4.213-9.536-6.547-10.119-7.878-20.566-17.177-27.619-27.964-1.689-2.584-2.813-5.505-4.226-8.24-1.908-3.691-3.625-6.867-4.779-10.894-2.074-7.239-3.038-15.943-3.983-23.447 1.533 1.041.724 5.185 2.633 6.621l.951-.532c.283-2.347-1.86-4.054-1.535-6.486l-.624.246 1.017-.257c.247 3.657 2.748 8.449 4.325 11.768 8.591 18.09 24.583 35.83 42.321 45.111 8.436 4.414 17.566 7.327 26.514 10.492 10.982 3.884 22.24 9.772 27.479 20.758-.057 1.359.069 3.183-.361 4.448l-.393-.969c-15.577 7.152-25.372 3.844-40.851-1.251m-69.224 331.437c5.104-1.657 14.502 1.064 20.381.828l.216-.856c-.763-.317-.387-.076-1.061-.819l.381-2.264-.432-.426c-3.62.829-10.779.415-14.263-.869-4.804-1.771-10.017-2.014-14.834-3.682-19.173-6.641-37.959-19.013-49.145-36.255-3.08-4.746-5.155-10.031-7.678-15.077 7.019 3.425 11.174 8.797 16.823 13.91 15.343 13.889 35.035 22.558 55.354 26.164 26.501 4.702 54.941 1.11 77.346-14.601l.713-.802c2.062.885 3.918 1.882 5.82 3.07-9.258 16.13-30.791 26.157-48.124 30.892-12.712 3.473-28.546 3.437-41.497.787"/><path fill="#fcfcf7" d="M765.085 389.389c1.28.27 1.987.197 2.653 1.474 1.458 2.789.951 8.134.827 11.164-.998 24.518-10.023 59.617-20.253 82.032-2.757 6.042-5.618 12.471-9.67 17.763-8.614 11.106-9.546 10.824-11.317 25.303-3.83 3.083-7.791 6.084-12.412 7.885-8.384 3.268-16.941 2.128-24.972-1.549-8.98-4.112-20.254-15.083-23.454-24.392-.929-2.703-.54-5.014.747-7.505q1.067 1.633 2.256 3.179c4.227 5.404 9.787 9.425 16.811 10.094 10.732 1.022 23.214-4.757 31.278-11.51 29.908-25.045 43.598-71.943 47.145-109.49.43-1.265.304-3.089.361-4.448"/><path fill="#24173e" d="M536.7 504.122c12.129-8.553 27.716-14.106 42.649-11.486 14.493 2.543 29.42 12.214 37.761 24.326 9.286 13.482 13.369 31.979 10.233 48.061-2.333 11.963-8.8 23.261-16.595 32.5-11.804 10.908-23.072 17.292-39.639 16.868-18.764-.48-33.012-10.301-45.486-23.331-2.894-3.709-5.444-7.876-7.478-12.116-7.542-15.722-7.065-32.315-1.356-48.492 3.044-7.097 6.801-12.464 11.547-18.517-.1-.526-.177-.844-.227-1.35-.302-3.056 1.168-5.452 2.998-7.729 1.586 1.327 3.621 1.173 5.593 1.266"/><path fill="#4c9fc2" d="M528.336 511.935c-.1-.526-.177-.844-.227-1.35-.302-3.056 1.168-5.452 2.998-7.729 1.586 1.327 3.621 1.173 5.593 1.266-2.929 2.501-5.729 5-8.364 7.813"/><path fill="#b3c4d3" d="M526.645 564.517c2.964 1.84 5.847 7.671 7.756 10.687 8.89 14.041 23.368 21.96 40.137 21.841 3.869-1.048 7.692-2.541 11.457-3.918 8.956-4.213 13.312-8.144 20.145-15.049 1.327-1.341 1.722-1.076 3.529-1.135q-1.733 3.566-4.023 6.803c-6.521 9.347-16.753 15.311-27.904 17.211-11.55 1.968-23.824-1.187-33.329-7.953q-.879-.623-1.726-1.289-.848-.665-1.661-1.372t-1.59-1.453-1.516-1.531-1.439-1.603-1.357-1.673-1.273-1.738-1.185-1.799q-.57-.914-1.094-1.855-.525-.942-1.001-1.908-.477-.966-.906-1.955-.428-.988-.807-1.997-.379-1.008-.707-2.035-.329-1.026-.606-2.067t-.502-2.095-.398-2.117"/><path fill="#c7e0e4" d="M587.119 593.732c1.618-.746 3.248-1.706 5.069-1.635l.135.757c-1.799 2.11-3.336 2.995-5.924 3.908-1.153-.115-1.917-.082-2.803-.889.799-1.187 2.239-1.542 3.523-2.141"/><path fill="#fcfcf7" d="M526.645 564.517c-2.521-13.861-.962-27.287 7.16-39.071 6.83-9.91 16.724-16.87 28.652-19.067 12.554-2.313 24.1.129 34.566 7.439 8.698 6.075 16.486 21.653 18.194 32.115 1.826 11.19-.644 20.975-5.548 31.01-1.807.059-2.202-.206-3.529 1.135-6.833 6.905-11.189 10.836-20.145 15.049-3.765 1.377-7.588 2.87-11.457 3.918-16.769.119-31.247-7.8-40.137-21.841-1.909-3.016-4.792-8.847-7.756-10.687"/><path fill="#24173e" d="M570.877 513.72c4.035.067 7.513.871 11.373 1.947-.718.458-1.436.919-2.123 1.423-3.485 2.562-5.474 7.51-5.944 11.693-.541 4.811.81 9.474 3.941 13.183q.279.336.576.657t.608.626q.313.305.641.594.327.288.669.56.343.271.698.525.356.253.724.488.369.235.749.45t.77.411.791.371q.4.175.809.329.408.155.824.288t.838.244.85.201.859.157.866.112.871.068c6.67.281 11.025-3.545 15.508-7.853 1.993 7.862 2.337 15.327-.081 23.156-3.195 10.342-10.37 17.68-19.81 22.656-3.862 1.663-7.653 2.801-11.853 3.135-9.545.758-18.322-1.807-25.634-8.069-7.877-6.746-12.854-17.51-13.492-27.821-.624-10.085 3.014-19.748 9.716-27.253 7.084-7.934 15.772-11.638 26.256-12.278"/></svg>